<mxfile host="app.diagrams.net" modified="2024-06-13T02:54:22.670Z" agent="Mozilla/5.0 (Windows NT 10.0; Win64; x64) AppleWebKit/537.36 (KHTML, like Gecko) Chrome/125.0.0.0 Safari/537.36" etag="zcWT7DnrH7voSkXVrB4S" version="24.5.2" type="github" pages="4">
  <diagram id="C5RBs43oDa-KdzZeNtuy" name="工资保证金备案流程">
    <mxGraphModel dx="1878" dy="1168" grid="0" gridSize="10" guides="1" tooltips="1" connect="1" arrows="1" fold="1" page="1" pageScale="1" pageWidth="1800" pageHeight="2700" background="none" math="0" shadow="0">
      <root>
        <mxCell id="WIyWlLk6GJQsqaUBKTNV-0" />
        <mxCell id="WIyWlLk6GJQsqaUBKTNV-1" parent="WIyWlLk6GJQsqaUBKTNV-0" />
        <mxCell id="mK7_Rjm9uQmZdw8ifcBr-0" value="&lt;font style=&quot;font-size: 28px;&quot;&gt;工资保证金备案流程&lt;/font&gt;" style="swimlane;childLayout=stackLayout;resizeParent=1;resizeParentMax=0;startSize=60;html=1;rounded=0;fontSize=13;fontFamily=Helvetica;" parent="WIyWlLk6GJQsqaUBKTNV-1" vertex="1">
          <mxGeometry x="252" y="50" width="1442" height="2526" as="geometry" />
        </mxCell>
        <mxCell id="mK7_Rjm9uQmZdw8ifcBr-1" value="施工单位" style="swimlane;startSize=20;html=1;fontSize=16;swimlaneFillColor=#FFF4C3;rounded=0;fontFamily=Helvetica;" parent="mK7_Rjm9uQmZdw8ifcBr-0" vertex="1">
          <mxGeometry y="60" width="257" height="2466" as="geometry" />
        </mxCell>
        <mxCell id="mK7_Rjm9uQmZdw8ifcBr-2" value="" style="edgeStyle=orthogonalEdgeStyle;rounded=0;orthogonalLoop=1;jettySize=auto;html=1;fontSize=13;fontFamily=Helvetica;" parent="mK7_Rjm9uQmZdw8ifcBr-1" source="mK7_Rjm9uQmZdw8ifcBr-3" target="mK7_Rjm9uQmZdw8ifcBr-4" edge="1">
          <mxGeometry relative="1" as="geometry" />
        </mxCell>
        <mxCell id="mK7_Rjm9uQmZdw8ifcBr-3" value="&lt;p style=&quot;text-align: justify;&quot; class=&quot;MsoNormal&quot;&gt;&lt;font&gt;在网办大厅生成工资保证金备案待办信息，待办信息中包含试算比例和金额，同时向施工单位履行告知义务，告知辖区内工资保证金缴存政策，特别是缓、免、少政策，提醒施工单位确定适用政策情况，选择缴存方式。&lt;/font&gt;&lt;br&gt;&lt;/p&gt;" style="whiteSpace=wrap;html=1;strokeWidth=2;rounded=0;fontSize=13;fontFamily=Helvetica;" parent="mK7_Rjm9uQmZdw8ifcBr-1" vertex="1">
          <mxGeometry x="58" y="1158.5" width="178.63" height="149" as="geometry" />
        </mxCell>
        <mxCell id="mK7_Rjm9uQmZdw8ifcBr-4" value="&lt;div style=&quot;text-align: justify;&quot;&gt;&lt;span style=&quot;background-color: initial;&quot;&gt;施工单位在网办大厅进行备案申报，提交&lt;/span&gt;&lt;b style=&quot;background-color: initial;&quot;&gt;存储申请&lt;/b&gt;&lt;span style=&quot;background-color: initial;&quot;&gt;，上传营业执照、施工合同、施工许可证等材料。符合缓、免、少政策的，可同时上传相关材料，提出缓、免、少申请。施工单位可直接在网办大厅自主申报或根据缴存提醒进行申报。&lt;/span&gt;&lt;/div&gt;" style="whiteSpace=wrap;html=1;strokeWidth=2;rounded=0;fontSize=13;fontFamily=Helvetica;fillColor=#f8cecc;strokeColor=#b85450;" parent="mK7_Rjm9uQmZdw8ifcBr-1" vertex="1">
          <mxGeometry x="52.38" y="1333" width="189.87" height="140" as="geometry" />
        </mxCell>
        <mxCell id="690ciPL95GRpchXhO9Ni-18" style="edgeStyle=orthogonalEdgeStyle;rounded=0;orthogonalLoop=1;jettySize=auto;html=1;entryX=0.5;entryY=1;entryDx=0;entryDy=0;exitX=0;exitY=0.5;exitDx=0;exitDy=0;fontSize=13;fontFamily=Helvetica;" parent="mK7_Rjm9uQmZdw8ifcBr-1" source="mK7_Rjm9uQmZdw8ifcBr-7" target="mK7_Rjm9uQmZdw8ifcBr-4" edge="1">
          <mxGeometry relative="1" as="geometry" />
        </mxCell>
        <mxCell id="mK7_Rjm9uQmZdw8ifcBr-7" value="施工单位补正材料后重新发起" style="whiteSpace=wrap;html=1;strokeWidth=2;rounded=0;fontSize=13;fontFamily=Helvetica;" parent="mK7_Rjm9uQmZdw8ifcBr-1" vertex="1">
          <mxGeometry x="87.32000000000001" y="1549" width="120" height="60" as="geometry" />
        </mxCell>
        <mxCell id="mK7_Rjm9uQmZdw8ifcBr-8" value="" style="edgeStyle=orthogonalEdgeStyle;rounded=0;orthogonalLoop=1;jettySize=auto;html=1;fontSize=13;fontFamily=Helvetica;" parent="mK7_Rjm9uQmZdw8ifcBr-1" source="mK7_Rjm9uQmZdw8ifcBr-9" target="mK7_Rjm9uQmZdw8ifcBr-12" edge="1">
          <mxGeometry relative="1" as="geometry" />
        </mxCell>
        <mxCell id="mK7_Rjm9uQmZdw8ifcBr-9" value="&lt;font&gt;施工单位确认接收&lt;/font&gt;&lt;div&gt;&lt;b&gt;存储申请书&lt;/b&gt;&lt;/div&gt;" style="whiteSpace=wrap;html=1;strokeWidth=2;rounded=0;fontSize=13;fontFamily=Helvetica;" parent="mK7_Rjm9uQmZdw8ifcBr-1" vertex="1">
          <mxGeometry x="71.86999999999999" y="1721" width="130" height="60" as="geometry" />
        </mxCell>
        <mxCell id="mK7_Rjm9uQmZdw8ifcBr-10" value="" style="edgeStyle=orthogonalEdgeStyle;rounded=0;orthogonalLoop=1;jettySize=auto;html=1;fontSize=13;fontFamily=Helvetica;" parent="mK7_Rjm9uQmZdw8ifcBr-1" source="mK7_Rjm9uQmZdw8ifcBr-12" target="mK7_Rjm9uQmZdw8ifcBr-13" edge="1">
          <mxGeometry relative="1" as="geometry" />
        </mxCell>
        <mxCell id="mK7_Rjm9uQmZdw8ifcBr-11" value="是" style="edgeLabel;html=1;align=center;verticalAlign=middle;resizable=0;points=[];rounded=0;fontSize=13;fontFamily=Helvetica;" parent="mK7_Rjm9uQmZdw8ifcBr-10" vertex="1" connectable="0">
          <mxGeometry x="-0.1405" y="-1" relative="1" as="geometry">
            <mxPoint as="offset" />
          </mxGeometry>
        </mxCell>
        <mxCell id="mK7_Rjm9uQmZdw8ifcBr-12" value="是否线上办理？" style="rhombus;whiteSpace=wrap;html=1;strokeWidth=2;rounded=0;fontSize=13;fontFamily=Helvetica;" parent="mK7_Rjm9uQmZdw8ifcBr-1" vertex="1">
          <mxGeometry x="55.010000000000005" y="1815" width="163.75" height="60" as="geometry" />
        </mxCell>
        <mxCell id="mK7_Rjm9uQmZdw8ifcBr-13" value="&lt;div&gt;施工单位在线选择&lt;/div&gt;&lt;div&gt;与缴存方式对应的&lt;/div&gt;&lt;div&gt;金融机构办理&lt;/div&gt;" style="whiteSpace=wrap;html=1;strokeWidth=2;rounded=0;fontSize=13;fontFamily=Helvetica;" parent="mK7_Rjm9uQmZdw8ifcBr-1" vertex="1">
          <mxGeometry x="76.88499999999999" y="1913" width="120" height="60" as="geometry" />
        </mxCell>
        <mxCell id="mK7_Rjm9uQmZdw8ifcBr-14" value="施工单位到网办大厅填报经办结果，上传缴存凭证。相关原件按要求送达设区市人社部门。" style="whiteSpace=wrap;html=1;strokeWidth=2;rounded=0;fontSize=13;fontFamily=Helvetica;" parent="mK7_Rjm9uQmZdw8ifcBr-1" vertex="1">
          <mxGeometry x="67.43" y="2030" width="138.87" height="76" as="geometry" />
        </mxCell>
        <mxCell id="mK7_Rjm9uQmZdw8ifcBr-15" value="人社部门" style="swimlane;startSize=20;html=1;fontSize=16;swimlaneFillColor=#D5E8D4;rounded=0;fontFamily=Helvetica;" parent="mK7_Rjm9uQmZdw8ifcBr-0" vertex="1">
          <mxGeometry x="257" y="60" width="817" height="2466" as="geometry" />
        </mxCell>
        <mxCell id="mK7_Rjm9uQmZdw8ifcBr-16" value="&lt;font&gt;数据汇总：&lt;/font&gt;&lt;font&gt;项目库&lt;/font&gt;" style="strokeWidth=2;html=1;shape=mxgraph.flowchart.start_2;whiteSpace=wrap;rounded=0;fontSize=13;fontFamily=Helvetica;" parent="mK7_Rjm9uQmZdw8ifcBr-15" vertex="1">
          <mxGeometry x="295" y="36" width="146" height="35" as="geometry" />
        </mxCell>
        <mxCell id="mK7_Rjm9uQmZdw8ifcBr-17" value="" style="edgeStyle=orthogonalEdgeStyle;rounded=0;orthogonalLoop=1;jettySize=auto;html=1;exitX=0;exitY=0.5;exitDx=0;exitDy=0;exitPerimeter=0;fontSize=13;fontFamily=Helvetica;" parent="mK7_Rjm9uQmZdw8ifcBr-15" source="mK7_Rjm9uQmZdw8ifcBr-19" target="mK7_Rjm9uQmZdw8ifcBr-21" edge="1">
          <mxGeometry relative="1" as="geometry" />
        </mxCell>
        <mxCell id="mK7_Rjm9uQmZdw8ifcBr-18" value="完整" style="edgeLabel;html=1;align=center;verticalAlign=middle;resizable=0;points=[];rounded=0;fontSize=13;fontFamily=Helvetica;" parent="mK7_Rjm9uQmZdw8ifcBr-17" vertex="1" connectable="0">
          <mxGeometry x="-0.2092" y="1" relative="1" as="geometry">
            <mxPoint as="offset" />
          </mxGeometry>
        </mxCell>
        <mxCell id="mK7_Rjm9uQmZdw8ifcBr-19" value="项目信息是否完整？" style="strokeWidth=2;html=1;shape=mxgraph.flowchart.decision;whiteSpace=wrap;rounded=0;fontSize=13;fontFamily=Helvetica;" parent="mK7_Rjm9uQmZdw8ifcBr-15" vertex="1">
          <mxGeometry x="186.82" y="99" width="362.36" height="70" as="geometry" />
        </mxCell>
        <mxCell id="mK7_Rjm9uQmZdw8ifcBr-20" style="edgeStyle=orthogonalEdgeStyle;rounded=0;orthogonalLoop=1;jettySize=auto;html=1;entryX=0.5;entryY=0;entryDx=0;entryDy=0;fontSize=13;fontFamily=Helvetica;" parent="mK7_Rjm9uQmZdw8ifcBr-15" source="mK7_Rjm9uQmZdw8ifcBr-21" target="mK7_Rjm9uQmZdw8ifcBr-54" edge="1">
          <mxGeometry relative="1" as="geometry" />
        </mxCell>
        <mxCell id="mK7_Rjm9uQmZdw8ifcBr-21" value="&lt;font&gt;&lt;font&gt;系统生成待办备案&lt;/font&gt;&lt;font&gt;提醒，&lt;/font&gt;&lt;/font&gt;&lt;div&gt;&lt;font&gt;自动流转至设区市&lt;/font&gt;&lt;span style=&quot;background-color: initial;&quot;&gt;人社部门&lt;/span&gt;&lt;/div&gt;" style="whiteSpace=wrap;html=1;strokeWidth=2;rounded=0;fontSize=13;fontFamily=Helvetica;" parent="mK7_Rjm9uQmZdw8ifcBr-15" vertex="1">
          <mxGeometry x="27.49" y="518" width="162.51" height="60" as="geometry" />
        </mxCell>
        <mxCell id="mK7_Rjm9uQmZdw8ifcBr-22" value="" style="edgeStyle=orthogonalEdgeStyle;rounded=0;orthogonalLoop=1;jettySize=auto;html=1;entryX=0.5;entryY=0;entryDx=0;entryDy=0;entryPerimeter=0;fontSize=13;fontFamily=Helvetica;" parent="mK7_Rjm9uQmZdw8ifcBr-15" source="mK7_Rjm9uQmZdw8ifcBr-24" target="mK7_Rjm9uQmZdw8ifcBr-38" edge="1">
          <mxGeometry relative="1" as="geometry" />
        </mxCell>
        <mxCell id="mK7_Rjm9uQmZdw8ifcBr-23" value="补全" style="edgeLabel;html=1;align=center;verticalAlign=middle;resizable=0;points=[];rounded=0;fontSize=13;fontFamily=Helvetica;" parent="mK7_Rjm9uQmZdw8ifcBr-22" vertex="1" connectable="0">
          <mxGeometry x="-0.1498" relative="1" as="geometry">
            <mxPoint as="offset" />
          </mxGeometry>
        </mxCell>
        <mxCell id="mK7_Rjm9uQmZdw8ifcBr-24" value="&lt;font&gt;整体新增或部分补全&lt;/font&gt;" style="strokeWidth=2;html=1;shape=mxgraph.flowchart.decision;whiteSpace=wrap;rounded=0;fontSize=13;fontFamily=Helvetica;" parent="mK7_Rjm9uQmZdw8ifcBr-15" vertex="1">
          <mxGeometry x="232.5" y="206" width="270" height="60" as="geometry" />
        </mxCell>
        <mxCell id="mK7_Rjm9uQmZdw8ifcBr-25" value="" style="edgeStyle=orthogonalEdgeStyle;rounded=0;orthogonalLoop=1;jettySize=auto;html=1;fontSize=13;fontFamily=Helvetica;" parent="mK7_Rjm9uQmZdw8ifcBr-15" source="mK7_Rjm9uQmZdw8ifcBr-26" target="mK7_Rjm9uQmZdw8ifcBr-33" edge="1">
          <mxGeometry relative="1" as="geometry" />
        </mxCell>
        <mxCell id="mK7_Rjm9uQmZdw8ifcBr-26" value="&lt;div style=&quot;font-size: 13px;&quot;&gt;&lt;span style=&quot;background-color: initial;&quot;&gt;&lt;br&gt;&lt;/span&gt;&lt;/div&gt;&lt;div style=&quot;font-size: 13px;&quot;&gt;&lt;span style=&quot;background-color: initial;&quot;&gt;途径1：人社部门手动录入&lt;/span&gt;&lt;br&gt;&lt;/div&gt;&lt;div style=&quot;font-size: 13px;&quot;&gt;&lt;span style=&quot;background-color: initial;&quot;&gt;途径2：&lt;/span&gt;&lt;span style=&quot;background-color: initial;&quot;&gt;人社部门批量导入&lt;/span&gt;&lt;/div&gt;&lt;div style=&quot;font-size: 13px;&quot;&gt;&lt;span style=&quot;background-color: initial;&quot;&gt;&lt;span style=&quot;background-color: initial;&quot;&gt;途径3：&lt;/span&gt;&lt;span style=&quot;background-color: initial;&quot;&gt;人社部门归集后对接&lt;/span&gt;&lt;br&gt;&lt;/span&gt;&lt;/div&gt;&lt;p style=&quot;font-size: 13px;&quot; class=&quot;MsoNormal&quot;&gt;&lt;span style=&quot;font-size: 13px;&quot;&gt;&lt;/span&gt;&lt;/p&gt;" style="whiteSpace=wrap;html=1;strokeWidth=2;rounded=0;fontSize=13;fontFamily=Helvetica;" parent="mK7_Rjm9uQmZdw8ifcBr-15" vertex="1">
          <mxGeometry x="142" y="310.5" width="187" height="62.5" as="geometry" />
        </mxCell>
        <mxCell id="mK7_Rjm9uQmZdw8ifcBr-27" value="" style="edgeStyle=orthogonalEdgeStyle;rounded=0;orthogonalLoop=1;jettySize=auto;html=1;fontSize=13;fontFamily=Helvetica;" parent="mK7_Rjm9uQmZdw8ifcBr-15" source="mK7_Rjm9uQmZdw8ifcBr-19" target="mK7_Rjm9uQmZdw8ifcBr-24" edge="1">
          <mxGeometry relative="1" as="geometry" />
        </mxCell>
        <mxCell id="mK7_Rjm9uQmZdw8ifcBr-28" value="不完整" style="edgeLabel;html=1;align=center;verticalAlign=middle;resizable=0;points=[];rounded=0;fontSize=13;fontFamily=Helvetica;" parent="mK7_Rjm9uQmZdw8ifcBr-27" vertex="1" connectable="0">
          <mxGeometry x="-0.1319" relative="1" as="geometry">
            <mxPoint as="offset" />
          </mxGeometry>
        </mxCell>
        <mxCell id="mK7_Rjm9uQmZdw8ifcBr-29" value="" style="edgeStyle=orthogonalEdgeStyle;rounded=0;orthogonalLoop=1;jettySize=auto;html=1;fontSize=13;fontFamily=Helvetica;entryX=0.5;entryY=0;entryDx=0;entryDy=0;" parent="mK7_Rjm9uQmZdw8ifcBr-15" source="mK7_Rjm9uQmZdw8ifcBr-24" target="mK7_Rjm9uQmZdw8ifcBr-26" edge="1">
          <mxGeometry relative="1" as="geometry" />
        </mxCell>
        <mxCell id="mK7_Rjm9uQmZdw8ifcBr-30" value="&lt;span style=&quot;text-wrap: wrap; background-color: rgb(251, 251, 251);&quot;&gt;新增&lt;/span&gt;" style="edgeLabel;html=1;align=center;verticalAlign=middle;resizable=0;points=[];rounded=0;fontSize=13;fontFamily=Helvetica;" parent="mK7_Rjm9uQmZdw8ifcBr-29" vertex="1" connectable="0">
          <mxGeometry x="0.1678" relative="1" as="geometry">
            <mxPoint as="offset" />
          </mxGeometry>
        </mxCell>
        <mxCell id="mK7_Rjm9uQmZdw8ifcBr-31" style="edgeStyle=orthogonalEdgeStyle;rounded=0;orthogonalLoop=1;jettySize=auto;html=1;entryX=1;entryY=0.5;entryDx=0;entryDy=0;exitX=0.5;exitY=1;exitDx=0;exitDy=0;fontSize=13;fontFamily=Helvetica;" parent="mK7_Rjm9uQmZdw8ifcBr-15" source="mK7_Rjm9uQmZdw8ifcBr-33" target="mK7_Rjm9uQmZdw8ifcBr-21" edge="1">
          <mxGeometry relative="1" as="geometry" />
        </mxCell>
        <mxCell id="mK7_Rjm9uQmZdw8ifcBr-32" value="是" style="edgeLabel;html=1;align=center;verticalAlign=middle;resizable=0;points=[];rounded=0;fontSize=13;fontFamily=Helvetica;" parent="mK7_Rjm9uQmZdw8ifcBr-31" vertex="1" connectable="0">
          <mxGeometry x="-0.72" y="1" relative="1" as="geometry">
            <mxPoint as="offset" />
          </mxGeometry>
        </mxCell>
        <mxCell id="mK7_Rjm9uQmZdw8ifcBr-33" value="录入成功？" style="rhombus;whiteSpace=wrap;html=1;strokeWidth=2;rounded=0;fontSize=13;fontFamily=Helvetica;" parent="mK7_Rjm9uQmZdw8ifcBr-15" vertex="1">
          <mxGeometry x="168" y="416" width="135" height="60" as="geometry" />
        </mxCell>
        <mxCell id="mK7_Rjm9uQmZdw8ifcBr-34" value="" style="edgeStyle=orthogonalEdgeStyle;rounded=0;orthogonalLoop=1;jettySize=auto;html=1;fontSize=13;fontFamily=Helvetica;" parent="mK7_Rjm9uQmZdw8ifcBr-15" source="mK7_Rjm9uQmZdw8ifcBr-38" target="mK7_Rjm9uQmZdw8ifcBr-40" edge="1">
          <mxGeometry relative="1" as="geometry" />
        </mxCell>
        <mxCell id="mK7_Rjm9uQmZdw8ifcBr-35" value="是" style="edgeLabel;html=1;align=center;verticalAlign=middle;resizable=0;points=[];rounded=0;fontSize=13;fontFamily=Helvetica;" parent="mK7_Rjm9uQmZdw8ifcBr-34" vertex="1" connectable="0">
          <mxGeometry x="-0.1333" y="-1" relative="1" as="geometry">
            <mxPoint as="offset" />
          </mxGeometry>
        </mxCell>
        <mxCell id="mK7_Rjm9uQmZdw8ifcBr-36" value="" style="edgeStyle=orthogonalEdgeStyle;rounded=0;orthogonalLoop=1;jettySize=auto;html=1;fontSize=13;fontFamily=Helvetica;" parent="mK7_Rjm9uQmZdw8ifcBr-15" source="mK7_Rjm9uQmZdw8ifcBr-38" target="mK7_Rjm9uQmZdw8ifcBr-42" edge="1">
          <mxGeometry relative="1" as="geometry" />
        </mxCell>
        <mxCell id="mK7_Rjm9uQmZdw8ifcBr-37" value="否" style="edgeLabel;html=1;align=center;verticalAlign=middle;resizable=0;points=[];rounded=0;fontSize=13;fontFamily=Helvetica;" parent="mK7_Rjm9uQmZdw8ifcBr-36" vertex="1" connectable="0">
          <mxGeometry x="0.6042" relative="1" as="geometry">
            <mxPoint as="offset" />
          </mxGeometry>
        </mxCell>
        <mxCell id="mK7_Rjm9uQmZdw8ifcBr-38" value="&lt;div style=&quot;font-size: 13px;&quot;&gt;&lt;span style=&quot;font-size: 13px;&quot;&gt;是否在建且&lt;/span&gt;&lt;span style=&quot;background-color: initial;&quot;&gt;管辖清楚&lt;/span&gt;&lt;/div&gt;" style="strokeWidth=2;html=1;shape=mxgraph.flowchart.decision;whiteSpace=wrap;strokeColor=default;align=center;verticalAlign=middle;fontFamily=Helvetica;fontSize=13;fontColor=default;fillColor=default;rounded=0;" parent="mK7_Rjm9uQmZdw8ifcBr-15" vertex="1">
          <mxGeometry x="451" y="306" width="224" height="60" as="geometry" />
        </mxCell>
        <mxCell id="mK7_Rjm9uQmZdw8ifcBr-39" value="" style="edgeStyle=orthogonalEdgeStyle;rounded=0;orthogonalLoop=1;jettySize=auto;html=1;entryX=1;entryY=0.5;entryDx=0;entryDy=0;exitX=0.5;exitY=1;exitDx=0;exitDy=0;fontSize=13;fontFamily=Helvetica;" parent="mK7_Rjm9uQmZdw8ifcBr-15" source="mK7_Rjm9uQmZdw8ifcBr-40" target="mK7_Rjm9uQmZdw8ifcBr-21" edge="1">
          <mxGeometry relative="1" as="geometry" />
        </mxCell>
        <mxCell id="mK7_Rjm9uQmZdw8ifcBr-40" value="&lt;p style=&quot;font-size: 13px;&quot; class=&quot;MsoNormal&quot;&gt;&lt;span style=&quot;font-size: 13px;&quot;&gt;提醒市级人社部门纳入监管，&lt;/span&gt;&lt;span style=&quot;background-color: initial; font-size: 13px;&quot;&gt;督促补正&lt;/span&gt;&lt;span style=&quot;background-color: initial;&quot;&gt;项目&lt;/span&gt;&lt;span style=&quot;background-color: initial;&quot;&gt;信息，启动&lt;/span&gt;&lt;span style=&quot;background-color: initial;&quot;&gt;备案&lt;/span&gt;&lt;span style=&quot;background-color: initial;&quot;&gt;流程&lt;/span&gt;&lt;/p&gt;" style="html=1;strokeWidth=2;whiteSpace=wrap;rounded=0;fontSize=13;fontFamily=Helvetica;" parent="mK7_Rjm9uQmZdw8ifcBr-15" vertex="1">
          <mxGeometry x="314.18" y="416" width="200.82" height="60" as="geometry" />
        </mxCell>
        <mxCell id="mK7_Rjm9uQmZdw8ifcBr-41" style="edgeStyle=orthogonalEdgeStyle;rounded=0;orthogonalLoop=1;jettySize=auto;html=1;exitX=0.5;exitY=1;exitDx=0;exitDy=0;fontSize=13;fontFamily=Helvetica;" parent="mK7_Rjm9uQmZdw8ifcBr-15" source="mK7_Rjm9uQmZdw8ifcBr-42" edge="1">
          <mxGeometry relative="1" as="geometry">
            <mxPoint x="626.5" y="494" as="sourcePoint" />
            <mxPoint x="676" y="334" as="targetPoint" />
            <Array as="points">
              <mxPoint x="629" y="514" />
              <mxPoint x="719" y="514" />
              <mxPoint x="719" y="398" />
              <mxPoint x="676" y="398" />
            </Array>
          </mxGeometry>
        </mxCell>
        <mxCell id="mK7_Rjm9uQmZdw8ifcBr-42" value="&lt;p style=&quot;font-size: 13px;&quot; class=&quot;MsoNormal&quot;&gt;&lt;span style=&quot;font-size: 13px;&quot;&gt;提请行业主管部门、人社部门补正&lt;/span&gt;&lt;/p&gt;" style="whiteSpace=wrap;html=1;strokeWidth=2;rounded=0;fontSize=13;fontFamily=Helvetica;" parent="mK7_Rjm9uQmZdw8ifcBr-15" vertex="1">
          <mxGeometry x="556" y="416" width="145" height="60" as="geometry" />
        </mxCell>
        <mxCell id="mK7_Rjm9uQmZdw8ifcBr-43" value="" style="edgeStyle=orthogonalEdgeStyle;rounded=0;orthogonalLoop=1;jettySize=auto;html=1;fontSize=13;fontFamily=Helvetica;entryX=0.5;entryY=0;entryDx=0;entryDy=0;" parent="mK7_Rjm9uQmZdw8ifcBr-15" source="mK7_Rjm9uQmZdw8ifcBr-47" target="BtlxaE85i_RzBlJ2vxpg-42" edge="1">
          <mxGeometry relative="1" as="geometry">
            <mxPoint x="109" y="835" as="targetPoint" />
          </mxGeometry>
        </mxCell>
        <mxCell id="mK7_Rjm9uQmZdw8ifcBr-44" value="否" style="edgeLabel;html=1;align=center;verticalAlign=middle;resizable=0;points=[];rounded=0;fontSize=13;fontFamily=Helvetica;" parent="mK7_Rjm9uQmZdw8ifcBr-43" vertex="1" connectable="0">
          <mxGeometry x="-0.2892" y="1" relative="1" as="geometry">
            <mxPoint as="offset" />
          </mxGeometry>
        </mxCell>
        <mxCell id="mK7_Rjm9uQmZdw8ifcBr-45" style="edgeStyle=orthogonalEdgeStyle;rounded=0;orthogonalLoop=1;jettySize=auto;html=1;entryX=0.5;entryY=0;entryDx=0;entryDy=0;exitX=1;exitY=0.5;exitDx=0;exitDy=0;fontSize=13;fontFamily=Helvetica;" parent="mK7_Rjm9uQmZdw8ifcBr-15" source="mK7_Rjm9uQmZdw8ifcBr-47" target="mK7_Rjm9uQmZdw8ifcBr-52" edge="1">
          <mxGeometry relative="1" as="geometry" />
        </mxCell>
        <mxCell id="mK7_Rjm9uQmZdw8ifcBr-46" value="是" style="edgeLabel;html=1;align=center;verticalAlign=middle;resizable=0;points=[];rounded=0;fontSize=13;fontFamily=Helvetica;" parent="mK7_Rjm9uQmZdw8ifcBr-45" vertex="1" connectable="0">
          <mxGeometry x="-0.638" relative="1" as="geometry">
            <mxPoint y="-1" as="offset" />
          </mxGeometry>
        </mxCell>
        <mxCell id="mK7_Rjm9uQmZdw8ifcBr-47" value="是否委托县（市、区）办理？" style="rhombus;whiteSpace=wrap;html=1;strokeWidth=2;rounded=0;fontSize=13;fontFamily=Helvetica;" parent="mK7_Rjm9uQmZdw8ifcBr-15" vertex="1">
          <mxGeometry x="8.74" y="732" width="200" height="68" as="geometry" />
        </mxCell>
        <mxCell id="mK7_Rjm9uQmZdw8ifcBr-50" value="" style="edgeStyle=orthogonalEdgeStyle;rounded=0;orthogonalLoop=1;jettySize=auto;html=1;fontSize=13;fontFamily=Helvetica;" parent="mK7_Rjm9uQmZdw8ifcBr-15" source="mK7_Rjm9uQmZdw8ifcBr-51" target="mK7_Rjm9uQmZdw8ifcBr-59" edge="1">
          <mxGeometry relative="1" as="geometry" />
        </mxCell>
        <mxCell id="mK7_Rjm9uQmZdw8ifcBr-51" value="设区市人社部门&lt;div&gt;审核或复核&lt;/div&gt;" style="whiteSpace=wrap;html=1;strokeWidth=2;rounded=0;fontSize=13;fontFamily=Helvetica;" parent="mK7_Rjm9uQmZdw8ifcBr-15" vertex="1">
          <mxGeometry x="100" y="1449" width="120" height="47" as="geometry" />
        </mxCell>
        <mxCell id="mK7_Rjm9uQmZdw8ifcBr-52" value="&lt;font&gt;流转至县（市、区）&lt;/font&gt;&lt;div&gt;人社部门具体经办&lt;/div&gt;" style="whiteSpace=wrap;html=1;strokeWidth=2;rounded=0;fontSize=13;fontFamily=Helvetica;" parent="mK7_Rjm9uQmZdw8ifcBr-15" vertex="1">
          <mxGeometry x="221.28" y="841" width="162.5" height="52" as="geometry" />
        </mxCell>
        <mxCell id="690ciPL95GRpchXhO9Ni-0" style="edgeStyle=orthogonalEdgeStyle;rounded=0;orthogonalLoop=1;jettySize=auto;html=1;entryX=0.5;entryY=0;entryDx=0;entryDy=0;fontSize=13;fontFamily=Helvetica;" parent="mK7_Rjm9uQmZdw8ifcBr-15" source="mK7_Rjm9uQmZdw8ifcBr-54" target="mK7_Rjm9uQmZdw8ifcBr-47" edge="1">
          <mxGeometry relative="1" as="geometry" />
        </mxCell>
        <mxCell id="mK7_Rjm9uQmZdw8ifcBr-54" value="设区市人社部门确认管辖" style="whiteSpace=wrap;html=1;strokeWidth=2;rounded=0;fontSize=13;fontFamily=Helvetica;" parent="mK7_Rjm9uQmZdw8ifcBr-15" vertex="1">
          <mxGeometry x="27.75" y="620" width="162.51" height="60" as="geometry" />
        </mxCell>
        <mxCell id="mK7_Rjm9uQmZdw8ifcBr-55" value="&lt;p style=&quot;font-size: 13px;&quot; class=&quot;MsoNormal&quot;&gt;&lt;span style=&quot;font-size: 13px;&quot;&gt;面向施工单位生成缴存提醒，提醒用人单位到网办大厅进行工资保证金备案，可人工触发短信提醒。&lt;/span&gt;&lt;/p&gt;" style="whiteSpace=wrap;html=1;strokeWidth=2;rounded=0;fontSize=13;fontFamily=Helvetica;" parent="mK7_Rjm9uQmZdw8ifcBr-15" vertex="1">
          <mxGeometry x="19" y="1096" width="180" height="70" as="geometry" />
        </mxCell>
        <mxCell id="mK7_Rjm9uQmZdw8ifcBr-56" style="edgeStyle=orthogonalEdgeStyle;rounded=0;orthogonalLoop=1;jettySize=auto;html=1;fontSize=13;fontFamily=Helvetica;entryX=1;entryY=0.5;entryDx=0;entryDy=0;exitX=0.5;exitY=1;exitDx=0;exitDy=0;" parent="mK7_Rjm9uQmZdw8ifcBr-15" source="mK7_Rjm9uQmZdw8ifcBr-52" target="BtlxaE85i_RzBlJ2vxpg-0" edge="1">
          <mxGeometry relative="1" as="geometry">
            <mxPoint x="340.04" y="916" as="sourcePoint" />
            <mxPoint x="226.08761000000007" y="987.98" as="targetPoint" />
            <Array as="points">
              <mxPoint x="302" y="916" />
              <mxPoint x="302" y="971" />
            </Array>
          </mxGeometry>
        </mxCell>
        <mxCell id="mK7_Rjm9uQmZdw8ifcBr-57" value="" style="edgeStyle=orthogonalEdgeStyle;rounded=0;orthogonalLoop=1;jettySize=auto;html=1;fontSize=13;fontFamily=Helvetica;" parent="mK7_Rjm9uQmZdw8ifcBr-15" source="mK7_Rjm9uQmZdw8ifcBr-59" target="mK7_Rjm9uQmZdw8ifcBr-60" edge="1">
          <mxGeometry relative="1" as="geometry" />
        </mxCell>
        <mxCell id="mK7_Rjm9uQmZdw8ifcBr-58" value="是" style="edgeLabel;html=1;align=center;verticalAlign=middle;resizable=0;points=[];rounded=0;fontSize=13;fontFamily=Helvetica;" parent="mK7_Rjm9uQmZdw8ifcBr-57" connectable="0" vertex="1">
          <mxGeometry x="0.2133" relative="1" as="geometry">
            <mxPoint as="offset" />
          </mxGeometry>
        </mxCell>
        <mxCell id="mK7_Rjm9uQmZdw8ifcBr-59" value="审核通过？" style="rhombus;whiteSpace=wrap;html=1;strokeWidth=2;rounded=0;fontSize=13;fontFamily=Helvetica;" parent="mK7_Rjm9uQmZdw8ifcBr-15" vertex="1">
          <mxGeometry x="90" y="1513" width="140" height="60" as="geometry" />
        </mxCell>
        <mxCell id="mK7_Rjm9uQmZdw8ifcBr-60" value="&lt;font&gt;设区市人社部门反馈&lt;b&gt;存储申请书&lt;/b&gt;审核结果，注明政策依据、缴存方式、缴存额度、缴存期限等内容，支持人工触发短信提醒。&lt;/font&gt;" style="whiteSpace=wrap;html=1;strokeWidth=2;rounded=0;fontSize=13;fontFamily=Helvetica;fillColor=#f8cecc;strokeColor=#b85450;" parent="mK7_Rjm9uQmZdw8ifcBr-15" vertex="1">
          <mxGeometry x="66.51" y="1617" width="186.99" height="81" as="geometry" />
        </mxCell>
        <mxCell id="mK7_Rjm9uQmZdw8ifcBr-61" value="&lt;p style=&quot;font-size: 13px;&quot; class=&quot;MsoNormal&quot;&gt;&lt;span style=&quot;font-size: 13px;&quot;&gt;设区市人社部门审核并确认备案结果（审核通过条件是必须有金融机构在线回传或确认的结果），更新项目缴存状态，备案完成。&lt;/span&gt;&lt;/p&gt;" style="whiteSpace=wrap;html=1;strokeWidth=2;rounded=0;fontSize=13;fontFamily=Helvetica;" parent="mK7_Rjm9uQmZdw8ifcBr-15" vertex="1">
          <mxGeometry x="239" y="2260" width="257" height="83" as="geometry" />
        </mxCell>
        <mxCell id="mK7_Rjm9uQmZdw8ifcBr-62" value="备案流程结束" style="strokeWidth=2;html=1;shape=mxgraph.flowchart.terminator;whiteSpace=wrap;rounded=0;fontSize=13;fontFamily=Helvetica;" parent="mK7_Rjm9uQmZdw8ifcBr-15" vertex="1">
          <mxGeometry x="288" y="2389" width="160" height="60" as="geometry" />
        </mxCell>
        <mxCell id="mK7_Rjm9uQmZdw8ifcBr-63" style="edgeStyle=orthogonalEdgeStyle;rounded=0;orthogonalLoop=1;jettySize=auto;html=1;entryX=0.5;entryY=0;entryDx=0;entryDy=0;entryPerimeter=0;fontSize=13;fontFamily=Helvetica;" parent="mK7_Rjm9uQmZdw8ifcBr-15" source="mK7_Rjm9uQmZdw8ifcBr-61" target="mK7_Rjm9uQmZdw8ifcBr-62" edge="1">
          <mxGeometry relative="1" as="geometry" />
        </mxCell>
        <mxCell id="mK7_Rjm9uQmZdw8ifcBr-64" style="edgeStyle=orthogonalEdgeStyle;rounded=0;orthogonalLoop=1;jettySize=auto;html=1;entryX=0.5;entryY=0;entryDx=0;entryDy=0;entryPerimeter=0;fontSize=13;fontFamily=Helvetica;" parent="mK7_Rjm9uQmZdw8ifcBr-15" source="mK7_Rjm9uQmZdw8ifcBr-16" target="mK7_Rjm9uQmZdw8ifcBr-19" edge="1">
          <mxGeometry relative="1" as="geometry" />
        </mxCell>
        <mxCell id="690ciPL95GRpchXhO9Ni-12" value="是" style="edgeStyle=orthogonalEdgeStyle;rounded=0;orthogonalLoop=1;jettySize=auto;html=1;fontSize=13;fontFamily=Helvetica;" parent="mK7_Rjm9uQmZdw8ifcBr-15" source="690ciPL95GRpchXhO9Ni-8" target="690ciPL95GRpchXhO9Ni-11" edge="1">
          <mxGeometry relative="1" as="geometry" />
        </mxCell>
        <mxCell id="690ciPL95GRpchXhO9Ni-13" style="edgeStyle=orthogonalEdgeStyle;rounded=0;orthogonalLoop=1;jettySize=auto;html=1;entryX=1;entryY=0.5;entryDx=0;entryDy=0;exitX=1;exitY=0.5;exitDx=0;exitDy=0;fontSize=13;fontFamily=Helvetica;" parent="mK7_Rjm9uQmZdw8ifcBr-15" source="690ciPL95GRpchXhO9Ni-8" target="mK7_Rjm9uQmZdw8ifcBr-51" edge="1">
          <mxGeometry relative="1" as="geometry" />
        </mxCell>
        <mxCell id="690ciPL95GRpchXhO9Ni-15" value="否" style="edgeLabel;html=1;align=center;verticalAlign=middle;resizable=0;points=[];rounded=0;fontSize=13;fontFamily=Helvetica;" parent="690ciPL95GRpchXhO9Ni-13" vertex="1" connectable="0">
          <mxGeometry x="-0.6963" y="1" relative="1" as="geometry">
            <mxPoint as="offset" />
          </mxGeometry>
        </mxCell>
        <mxCell id="690ciPL95GRpchXhO9Ni-8" value="是否委托县（市、区）办理？" style="rhombus;whiteSpace=wrap;html=1;strokeWidth=2;rounded=0;fontSize=13;fontFamily=Helvetica;" parent="mK7_Rjm9uQmZdw8ifcBr-15" vertex="1">
          <mxGeometry x="60" y="1266" width="200" height="62" as="geometry" />
        </mxCell>
        <mxCell id="690ciPL95GRpchXhO9Ni-14" style="edgeStyle=orthogonalEdgeStyle;rounded=0;orthogonalLoop=1;jettySize=auto;html=1;entryX=0.5;entryY=0;entryDx=0;entryDy=0;fontSize=13;fontFamily=Helvetica;" parent="mK7_Rjm9uQmZdw8ifcBr-15" source="690ciPL95GRpchXhO9Ni-11" target="mK7_Rjm9uQmZdw8ifcBr-51" edge="1">
          <mxGeometry relative="1" as="geometry" />
        </mxCell>
        <mxCell id="690ciPL95GRpchXhO9Ni-11" value="&lt;font&gt;县（市、区）&lt;/font&gt;&lt;div&gt;&lt;font&gt;人社部门&lt;/font&gt;&lt;font&gt;审核&lt;/font&gt;&lt;/div&gt;" style="whiteSpace=wrap;html=1;strokeWidth=2;rounded=0;fontSize=13;fontFamily=Helvetica;" parent="mK7_Rjm9uQmZdw8ifcBr-15" vertex="1">
          <mxGeometry x="100" y="1366" width="120" height="50" as="geometry" />
        </mxCell>
        <mxCell id="BtlxaE85i_RzBlJ2vxpg-0" value="&lt;font&gt;系统根据政策&lt;/font&gt;&lt;div&gt;试算存储比例和金额&lt;/div&gt;" style="whiteSpace=wrap;html=1;strokeWidth=2;rounded=0;fontSize=13;fontFamily=Helvetica;" parent="mK7_Rjm9uQmZdw8ifcBr-15" vertex="1">
          <mxGeometry x="27.750000000000004" y="924" width="162.51" height="60" as="geometry" />
        </mxCell>
        <mxCell id="BtlxaE85i_RzBlJ2vxpg-3" value="是否存在管辖异议？" style="rhombus;whiteSpace=wrap;html=1;strokeWidth=2;rounded=0;fontSize=13;fontFamily=Helvetica;" parent="mK7_Rjm9uQmZdw8ifcBr-15" vertex="1">
          <mxGeometry x="217" y="619" width="200" height="62" as="geometry" />
        </mxCell>
        <mxCell id="BtlxaE85i_RzBlJ2vxpg-6" value="" style="endArrow=classic;html=1;rounded=0;entryX=0;entryY=0.5;entryDx=0;entryDy=0;exitX=1;exitY=0.5;exitDx=0;exitDy=0;" parent="mK7_Rjm9uQmZdw8ifcBr-15" source="mK7_Rjm9uQmZdw8ifcBr-54" target="BtlxaE85i_RzBlJ2vxpg-3" edge="1">
          <mxGeometry width="50" height="50" relative="1" as="geometry">
            <mxPoint x="126" y="619" as="sourcePoint" />
            <mxPoint x="176" y="569" as="targetPoint" />
          </mxGeometry>
        </mxCell>
        <mxCell id="BtlxaE85i_RzBlJ2vxpg-34" value="省级人社部门商&lt;div&gt;行业主管部门指定管辖&lt;/div&gt;" style="whiteSpace=wrap;html=1;strokeWidth=2;rounded=0;fontSize=13;fontFamily=Helvetica;" parent="mK7_Rjm9uQmZdw8ifcBr-15" vertex="1">
          <mxGeometry x="485" y="621" width="162.51" height="60" as="geometry" />
        </mxCell>
        <mxCell id="BtlxaE85i_RzBlJ2vxpg-36" value="&lt;font style=&quot;font-size: 13px;&quot;&gt;是&lt;/font&gt;" style="endArrow=classic;html=1;rounded=0;exitX=1;exitY=0.5;exitDx=0;exitDy=0;entryX=0;entryY=0.5;entryDx=0;entryDy=0;" parent="mK7_Rjm9uQmZdw8ifcBr-15" source="BtlxaE85i_RzBlJ2vxpg-3" target="BtlxaE85i_RzBlJ2vxpg-34" edge="1">
          <mxGeometry width="50" height="50" relative="1" as="geometry">
            <mxPoint x="420" y="663" as="sourcePoint" />
            <mxPoint x="484" y="663" as="targetPoint" />
          </mxGeometry>
        </mxCell>
        <mxCell id="BtlxaE85i_RzBlJ2vxpg-42" value="&lt;font&gt;设区市人社部门&lt;/font&gt;&lt;div&gt;具体经办&lt;/div&gt;" style="whiteSpace=wrap;html=1;strokeWidth=2;rounded=0;fontSize=13;fontFamily=Helvetica;" parent="mK7_Rjm9uQmZdw8ifcBr-15" vertex="1">
          <mxGeometry x="49" y="841" width="120" height="50" as="geometry" />
        </mxCell>
        <mxCell id="Krg7s1Zt5Ue1PJrIR1IM-0" value="人社部门审核并确认&lt;div&gt;试算比例和金额&lt;/div&gt;" style="whiteSpace=wrap;html=1;strokeWidth=2;rounded=0;fontSize=13;fontFamily=Helvetica;" parent="mK7_Rjm9uQmZdw8ifcBr-15" vertex="1">
          <mxGeometry x="27.75" y="1009" width="162.5" height="60" as="geometry" />
        </mxCell>
        <mxCell id="Krg7s1Zt5Ue1PJrIR1IM-4" value="" style="endArrow=classic;html=1;rounded=0;exitX=0.5;exitY=1;exitDx=0;exitDy=0;entryX=0.5;entryY=0;entryDx=0;entryDy=0;" parent="mK7_Rjm9uQmZdw8ifcBr-15" source="BtlxaE85i_RzBlJ2vxpg-42" target="BtlxaE85i_RzBlJ2vxpg-0" edge="1">
          <mxGeometry width="50" height="50" relative="1" as="geometry">
            <mxPoint x="77" y="1010" as="sourcePoint" />
            <mxPoint x="127" y="960" as="targetPoint" />
          </mxGeometry>
        </mxCell>
        <mxCell id="Krg7s1Zt5Ue1PJrIR1IM-5" value="" style="endArrow=classic;html=1;rounded=0;entryX=0.5;entryY=0;entryDx=0;entryDy=0;exitX=0.5;exitY=1;exitDx=0;exitDy=0;" parent="mK7_Rjm9uQmZdw8ifcBr-15" source="BtlxaE85i_RzBlJ2vxpg-0" target="Krg7s1Zt5Ue1PJrIR1IM-0" edge="1">
          <mxGeometry width="50" height="50" relative="1" as="geometry">
            <mxPoint x="77" y="1010" as="sourcePoint" />
            <mxPoint x="127" y="960" as="targetPoint" />
          </mxGeometry>
        </mxCell>
        <mxCell id="Krg7s1Zt5Ue1PJrIR1IM-6" value="" style="endArrow=classic;html=1;rounded=0;entryX=0.5;entryY=0;entryDx=0;entryDy=0;exitX=0.5;exitY=1;exitDx=0;exitDy=0;" parent="mK7_Rjm9uQmZdw8ifcBr-15" source="Krg7s1Zt5Ue1PJrIR1IM-0" target="mK7_Rjm9uQmZdw8ifcBr-55" edge="1">
          <mxGeometry width="50" height="50" relative="1" as="geometry">
            <mxPoint x="91" y="1069" as="sourcePoint" />
            <mxPoint x="118" y="1089" as="targetPoint" />
          </mxGeometry>
        </mxCell>
        <mxCell id="BtlxaE85i_RzBlJ2vxpg-14" style="edgeStyle=orthogonalEdgeStyle;rounded=0;orthogonalLoop=1;jettySize=auto;html=1;fontSize=13;fontFamily=Helvetica;exitX=0.5;exitY=1;exitDx=0;exitDy=0;entryX=0.75;entryY=1;entryDx=0;entryDy=0;" parent="mK7_Rjm9uQmZdw8ifcBr-15" source="BtlxaE85i_RzBlJ2vxpg-3" target="mK7_Rjm9uQmZdw8ifcBr-54" edge="1">
          <mxGeometry relative="1" as="geometry">
            <mxPoint x="316" y="696" as="sourcePoint" />
            <mxPoint x="92" y="718" as="targetPoint" />
            <Array as="points">
              <mxPoint x="317" y="718" />
              <mxPoint x="150" y="718" />
              <mxPoint x="150" y="694" />
            </Array>
          </mxGeometry>
        </mxCell>
        <mxCell id="BtlxaE85i_RzBlJ2vxpg-15" value="否" style="edgeLabel;html=1;align=center;verticalAlign=middle;resizable=0;points=[];rounded=0;fontSize=13;fontFamily=Helvetica;" parent="BtlxaE85i_RzBlJ2vxpg-14" vertex="1" connectable="0">
          <mxGeometry x="-0.638" relative="1" as="geometry">
            <mxPoint y="-1" as="offset" />
          </mxGeometry>
        </mxCell>
        <mxCell id="BtlxaE85i_RzBlJ2vxpg-39" value="" style="edgeStyle=elbowEdgeStyle;elbow=horizontal;endArrow=classic;html=1;curved=0;rounded=0;endSize=8;startSize=8;exitX=0.5;exitY=0;exitDx=0;exitDy=0;entryX=0.75;entryY=0;entryDx=0;entryDy=0;" parent="mK7_Rjm9uQmZdw8ifcBr-15" source="BtlxaE85i_RzBlJ2vxpg-34" target="mK7_Rjm9uQmZdw8ifcBr-54" edge="1">
          <mxGeometry width="50" height="50" relative="1" as="geometry">
            <mxPoint x="564.8849999999996" y="655" as="sourcePoint" />
            <mxPoint x="148.0024999999997" y="599" as="targetPoint" />
            <Array as="points">
              <mxPoint x="364" y="595" />
            </Array>
          </mxGeometry>
        </mxCell>
        <mxCell id="dSKXuRgJ1bh1bT4Km44_-1" value="&lt;font style=&quot;font-size: 13px;&quot;&gt;辅助功能一：政策库&lt;/font&gt;&lt;div style=&quot;text-align: justify;&quot;&gt;&lt;span style=&quot;font-size: 13px;&quot;&gt;分类记录全省、各设区市工资保证金正常缴存、免于缴存、增加缴存、降低缴存、暂缓缴存等政策措施，关联相应的缴存比例，用于计算缴存额度。政策适用结果是唯一的，由设区市人社部门具体判定。&lt;/span&gt;&lt;/div&gt;" style="rounded=0;whiteSpace=wrap;html=1;" parent="mK7_Rjm9uQmZdw8ifcBr-15" vertex="1">
          <mxGeometry x="503" y="1096" width="269" height="127" as="geometry" />
        </mxCell>
        <mxCell id="dSKXuRgJ1bh1bT4Km44_-2" value="&lt;div style=&quot;&quot;&gt;&lt;span style=&quot;font-size: 13px; background-color: initial;&quot;&gt;辅助功能二：金融机构库&lt;/span&gt;&lt;/div&gt;&lt;div style=&quot;text-align: justify;&quot;&gt;&lt;span style=&quot;font-size: 13px;&quot;&gt;1.面向省内所有金融机构提供标准化接入服务，接入后支持在线办理。省系统区分缴存方式，提供在线办理金融机构列表，自动关联相应经办流程；&lt;/span&gt;&lt;/div&gt;&lt;div style=&quot;text-align: justify;&quot;&gt;&lt;span style=&quot;font-size: 13px;&quot;&gt;2.不支持在线办理的金融机构应当在网办大厅注册账号，定期登录核对施工单位回填的经办结果；&lt;/span&gt;&lt;/div&gt;&lt;div style=&quot;text-align: justify;&quot;&gt;&lt;span style=&quot;font-size: 13px;&quot;&gt;3.建立金融机构评分机制，对服务质量高、数据质量好、给付高效的金融机构予以优先推荐。&lt;/span&gt;&lt;/div&gt;" style="rounded=0;whiteSpace=wrap;html=1;" parent="mK7_Rjm9uQmZdw8ifcBr-15" vertex="1">
          <mxGeometry x="503" y="1239" width="269" height="191" as="geometry" />
        </mxCell>
        <mxCell id="mK7_Rjm9uQmZdw8ifcBr-65" value="金融机构" style="swimlane;startSize=20;html=1;fontSize=16;swimlaneFillColor=#D4E1F5;rounded=0;fontFamily=Helvetica;" parent="mK7_Rjm9uQmZdw8ifcBr-0" vertex="1">
          <mxGeometry x="1074" y="60" width="368" height="2466" as="geometry" />
        </mxCell>
        <mxCell id="mK7_Rjm9uQmZdw8ifcBr-66" value="&lt;font&gt;施工单位线下自主&lt;/font&gt;&lt;div&gt;&lt;font&gt;到&lt;/font&gt;&lt;span style=&quot;background-color: initial;&quot;&gt;与缴存方式对应&lt;/span&gt;&lt;/div&gt;&lt;div&gt;&lt;span style=&quot;background-color: initial;&quot;&gt;的&lt;/span&gt;&lt;span style=&quot;background-color: initial;&quot;&gt;金融机构办理&lt;/span&gt;&lt;/div&gt;" style="whiteSpace=wrap;html=1;strokeWidth=2;rounded=0;fontSize=13;fontFamily=Helvetica;" parent="mK7_Rjm9uQmZdw8ifcBr-65" vertex="1">
          <mxGeometry x="175" y="1899" width="145" height="91" as="geometry" />
        </mxCell>
        <mxCell id="mK7_Rjm9uQmZdw8ifcBr-67" style="edgeStyle=orthogonalEdgeStyle;rounded=0;orthogonalLoop=1;jettySize=auto;html=1;entryX=0.5;entryY=0;entryDx=0;entryDy=0;fontSize=13;fontFamily=Helvetica;" parent="mK7_Rjm9uQmZdw8ifcBr-65" source="mK7_Rjm9uQmZdw8ifcBr-68" target="mK7_Rjm9uQmZdw8ifcBr-69" edge="1">
          <mxGeometry relative="1" as="geometry" />
        </mxCell>
        <mxCell id="mK7_Rjm9uQmZdw8ifcBr-68" value="转入相应金融机构线上办理流程，面向相关金融机构生成待办提醒，相关金融机构主动对接，提供服务。" style="whiteSpace=wrap;html=1;strokeWidth=2;rounded=0;fontSize=13;fontFamily=Helvetica;" parent="mK7_Rjm9uQmZdw8ifcBr-65" vertex="1">
          <mxGeometry x="15" y="1898" width="135" height="92" as="geometry" />
        </mxCell>
        <mxCell id="mK7_Rjm9uQmZdw8ifcBr-69" value="&lt;div&gt;线上办理，由金融机构向人社部门在线反馈经办结果，相关原件由金融机构按要求送达设区市人社部门，可以提供电子保函或保单；线下办理，由施工单位到网办大厅反馈经办结果，相关金融机构应当到网办大厅注册并登录，定期核对施工单位回填的经办结果，并向人社部门反馈。&lt;/div&gt;" style="whiteSpace=wrap;html=1;strokeWidth=2;rounded=0;fontSize=13;fontFamily=Helvetica;" parent="mK7_Rjm9uQmZdw8ifcBr-65" vertex="1">
          <mxGeometry x="18.75" y="2112" width="302.25" height="100" as="geometry" />
        </mxCell>
        <mxCell id="mK7_Rjm9uQmZdw8ifcBr-70" style="edgeStyle=orthogonalEdgeStyle;rounded=0;orthogonalLoop=1;jettySize=auto;html=1;entryX=0.5;entryY=0;entryDx=0;entryDy=0;fontSize=13;fontFamily=Helvetica;" parent="mK7_Rjm9uQmZdw8ifcBr-0" source="mK7_Rjm9uQmZdw8ifcBr-55" target="mK7_Rjm9uQmZdw8ifcBr-3" edge="1">
          <mxGeometry relative="1" as="geometry" />
        </mxCell>
        <mxCell id="mK7_Rjm9uQmZdw8ifcBr-71" style="edgeStyle=orthogonalEdgeStyle;rounded=0;orthogonalLoop=1;jettySize=auto;html=1;entryX=0;entryY=0.5;entryDx=0;entryDy=0;fontSize=13;fontFamily=Helvetica;exitX=0.054;exitY=0.523;exitDx=0;exitDy=0;exitPerimeter=0;" parent="mK7_Rjm9uQmZdw8ifcBr-0" source="mK7_Rjm9uQmZdw8ifcBr-33" target="mK7_Rjm9uQmZdw8ifcBr-4" edge="1">
          <mxGeometry relative="1" as="geometry">
            <mxPoint x="116.25" y="530" as="targetPoint" />
            <Array as="points">
              <mxPoint x="21" y="507" />
              <mxPoint x="21" y="1463" />
            </Array>
          </mxGeometry>
        </mxCell>
        <mxCell id="mK7_Rjm9uQmZdw8ifcBr-72" value="否" style="edgeLabel;html=1;align=center;verticalAlign=middle;resizable=0;points=[];rounded=0;fontSize=13;fontFamily=Helvetica;" parent="mK7_Rjm9uQmZdw8ifcBr-71" vertex="1" connectable="0">
          <mxGeometry x="-0.8153" y="-1" relative="1" as="geometry">
            <mxPoint as="offset" />
          </mxGeometry>
        </mxCell>
        <mxCell id="mK7_Rjm9uQmZdw8ifcBr-74" value="" style="edgeStyle=orthogonalEdgeStyle;rounded=0;orthogonalLoop=1;jettySize=auto;html=1;entryX=0.5;entryY=0;entryDx=0;entryDy=0;fontSize=13;fontFamily=Helvetica;" parent="mK7_Rjm9uQmZdw8ifcBr-0" source="mK7_Rjm9uQmZdw8ifcBr-59" target="mK7_Rjm9uQmZdw8ifcBr-7" edge="1">
          <mxGeometry relative="1" as="geometry" />
        </mxCell>
        <mxCell id="mK7_Rjm9uQmZdw8ifcBr-75" value="否" style="edgeLabel;html=1;align=center;verticalAlign=middle;resizable=0;points=[];rounded=0;fontSize=13;fontFamily=Helvetica;" parent="mK7_Rjm9uQmZdw8ifcBr-74" vertex="1" connectable="0">
          <mxGeometry x="-0.379" relative="1" as="geometry">
            <mxPoint as="offset" />
          </mxGeometry>
        </mxCell>
        <mxCell id="mK7_Rjm9uQmZdw8ifcBr-77" value="" style="edgeStyle=orthogonalEdgeStyle;rounded=0;orthogonalLoop=1;jettySize=auto;html=1;exitX=1;exitY=0.5;exitDx=0;exitDy=0;fontSize=13;fontFamily=Helvetica;" parent="mK7_Rjm9uQmZdw8ifcBr-0" source="mK7_Rjm9uQmZdw8ifcBr-12" target="mK7_Rjm9uQmZdw8ifcBr-66" edge="1">
          <mxGeometry relative="1" as="geometry">
            <mxPoint x="253.27999999999838" y="1810.0000000000005" as="sourcePoint" />
          </mxGeometry>
        </mxCell>
        <mxCell id="mK7_Rjm9uQmZdw8ifcBr-78" value="否" style="edgeLabel;html=1;align=center;verticalAlign=middle;resizable=0;points=[];rounded=0;fontSize=13;fontFamily=Helvetica;" parent="mK7_Rjm9uQmZdw8ifcBr-77" vertex="1" connectable="0">
          <mxGeometry x="-0.9449" relative="1" as="geometry">
            <mxPoint as="offset" />
          </mxGeometry>
        </mxCell>
        <mxCell id="mK7_Rjm9uQmZdw8ifcBr-79" value="" style="edgeStyle=orthogonalEdgeStyle;rounded=0;orthogonalLoop=1;jettySize=auto;html=1;fontSize=13;fontFamily=Helvetica;" parent="mK7_Rjm9uQmZdw8ifcBr-0" source="mK7_Rjm9uQmZdw8ifcBr-13" target="mK7_Rjm9uQmZdw8ifcBr-68" edge="1">
          <mxGeometry relative="1" as="geometry" />
        </mxCell>
        <mxCell id="mK7_Rjm9uQmZdw8ifcBr-80" style="edgeStyle=orthogonalEdgeStyle;rounded=0;orthogonalLoop=1;jettySize=auto;html=1;entryX=0;entryY=0.5;entryDx=0;entryDy=0;exitX=0.5;exitY=1;exitDx=0;exitDy=0;fontSize=13;fontFamily=Helvetica;" parent="mK7_Rjm9uQmZdw8ifcBr-0" source="mK7_Rjm9uQmZdw8ifcBr-14" target="mK7_Rjm9uQmZdw8ifcBr-69" edge="1">
          <mxGeometry relative="1" as="geometry" />
        </mxCell>
        <mxCell id="mK7_Rjm9uQmZdw8ifcBr-81" style="edgeStyle=orthogonalEdgeStyle;rounded=0;orthogonalLoop=1;jettySize=auto;html=1;entryX=0.5;entryY=0;entryDx=0;entryDy=0;exitX=0.5;exitY=1;exitDx=0;exitDy=0;fontSize=13;fontFamily=Helvetica;" parent="mK7_Rjm9uQmZdw8ifcBr-0" source="mK7_Rjm9uQmZdw8ifcBr-66" target="mK7_Rjm9uQmZdw8ifcBr-14" edge="1">
          <mxGeometry relative="1" as="geometry" />
        </mxCell>
        <mxCell id="mK7_Rjm9uQmZdw8ifcBr-82" style="edgeStyle=orthogonalEdgeStyle;rounded=0;orthogonalLoop=1;jettySize=auto;html=1;entryX=0.5;entryY=0;entryDx=0;entryDy=0;exitX=0.5;exitY=1;exitDx=0;exitDy=0;fontSize=13;fontFamily=Helvetica;" parent="mK7_Rjm9uQmZdw8ifcBr-0" source="mK7_Rjm9uQmZdw8ifcBr-69" target="mK7_Rjm9uQmZdw8ifcBr-61" edge="1">
          <mxGeometry relative="1" as="geometry" />
        </mxCell>
        <mxCell id="mK7_Rjm9uQmZdw8ifcBr-83" style="edgeStyle=orthogonalEdgeStyle;rounded=0;orthogonalLoop=1;jettySize=auto;html=1;entryX=0.5;entryY=0;entryDx=0;entryDy=0;fontSize=13;fontFamily=Helvetica;" parent="mK7_Rjm9uQmZdw8ifcBr-0" source="mK7_Rjm9uQmZdw8ifcBr-60" target="mK7_Rjm9uQmZdw8ifcBr-9" edge="1">
          <mxGeometry relative="1" as="geometry" />
        </mxCell>
        <mxCell id="690ciPL95GRpchXhO9Ni-6" value="" style="edgeStyle=orthogonalEdgeStyle;rounded=0;orthogonalLoop=1;jettySize=auto;html=1;exitX=0.999;exitY=0.5;exitDx=0;exitDy=0;exitPerimeter=0;entryX=0;entryY=0.5;entryDx=0;entryDy=0;fontSize=13;fontFamily=Helvetica;" parent="mK7_Rjm9uQmZdw8ifcBr-0" source="mK7_Rjm9uQmZdw8ifcBr-4" target="690ciPL95GRpchXhO9Ni-8" edge="1">
          <mxGeometry relative="1" as="geometry">
            <mxPoint x="195.87000000000012" y="1251" as="sourcePoint" />
            <mxPoint x="272.99999999999955" y="1248" as="targetPoint" />
          </mxGeometry>
        </mxCell>
        <mxCell id="mK7_Rjm9uQmZdw8ifcBr-84" value="" style="strokeWidth=2;html=1;shape=mxgraph.flowchart.annotation_2;align=left;labelPosition=right;pointerEvents=1;rounded=0;fontSize=13;fontFamily=Helvetica;" parent="WIyWlLk6GJQsqaUBKTNV-1" vertex="1">
          <mxGeometry x="203" y="208" width="50" height="544" as="geometry" />
        </mxCell>
        <mxCell id="mK7_Rjm9uQmZdw8ifcBr-85" value="备案提醒" style="whiteSpace=wrap;html=1;rounded=0;fontSize=13;fontFamily=Helvetica;" parent="WIyWlLk6GJQsqaUBKTNV-1" vertex="1">
          <mxGeometry x="84" y="450" width="120" height="60" as="geometry" />
        </mxCell>
        <mxCell id="mK7_Rjm9uQmZdw8ifcBr-88" value="&lt;p style=&quot;font-size: 13px;&quot; class=&quot;MsoNormal&quot;&gt;&lt;b style=&quot;font-size: 13px;&quot;&gt;&lt;span style=&quot;font-size: 13px;&quot;&gt;分配流转&lt;/span&gt;&lt;/b&gt;&lt;br style=&quot;font-size: 13px;&quot;&gt;&lt;/p&gt;" style="whiteSpace=wrap;html=1;rounded=0;fontSize=13;fontFamily=Helvetica;" parent="WIyWlLk6GJQsqaUBKTNV-1" vertex="1">
          <mxGeometry x="83" y="904.5" width="120" height="60" as="geometry" />
        </mxCell>
        <mxCell id="mK7_Rjm9uQmZdw8ifcBr-89" value="" style="strokeWidth=2;html=1;shape=mxgraph.flowchart.annotation_2;align=left;labelPosition=right;pointerEvents=1;rounded=0;fontSize=13;fontFamily=Helvetica;" parent="WIyWlLk6GJQsqaUBKTNV-1" vertex="1">
          <mxGeometry x="203" y="815" width="50" height="239" as="geometry" />
        </mxCell>
        <mxCell id="mK7_Rjm9uQmZdw8ifcBr-94" value="&lt;p style=&quot;font-size: 13px;&quot; class=&quot;MsoNormal&quot;&gt;&lt;b style=&quot;font-size: 13px;&quot;&gt;&lt;span style=&quot;font-size: 13px;&quot;&gt;备案&lt;/span&gt;&lt;/b&gt;&lt;b style=&quot;background-color: initial; font-size: 13px;&quot;&gt;&lt;span style=&quot;font-size: 13px;&quot;&gt;审核&lt;/span&gt;&lt;/b&gt;&lt;/p&gt;" style="whiteSpace=wrap;html=1;rounded=0;fontSize=13;fontFamily=Helvetica;" parent="WIyWlLk6GJQsqaUBKTNV-1" vertex="1">
          <mxGeometry x="81" y="1664" width="120" height="60" as="geometry" />
        </mxCell>
        <mxCell id="mK7_Rjm9uQmZdw8ifcBr-95" value="" style="strokeWidth=2;html=1;shape=mxgraph.flowchart.annotation_2;align=left;labelPosition=right;pointerEvents=1;rounded=0;fontSize=13;fontFamily=Helvetica;" parent="WIyWlLk6GJQsqaUBKTNV-1" vertex="1">
          <mxGeometry x="203" y="1620" width="50" height="148" as="geometry" />
        </mxCell>
        <mxCell id="mK7_Rjm9uQmZdw8ifcBr-96" value="&lt;p style=&quot;font-size: 13px;&quot; class=&quot;MsoNormal&quot;&gt;&lt;b style=&quot;font-size: 13px;&quot;&gt;&lt;span style=&quot;font-size: 13px;&quot;&gt;缴存办理&lt;/span&gt;&lt;/b&gt;&lt;/p&gt;" style="whiteSpace=wrap;html=1;rounded=0;fontSize=13;fontFamily=Helvetica;" parent="WIyWlLk6GJQsqaUBKTNV-1" vertex="1">
          <mxGeometry x="81" y="1955" width="120" height="60" as="geometry" />
        </mxCell>
        <mxCell id="mK7_Rjm9uQmZdw8ifcBr-97" value="" style="strokeWidth=2;html=1;shape=mxgraph.flowchart.annotation_2;align=left;labelPosition=right;pointerEvents=1;rounded=0;fontSize=13;fontFamily=Helvetica;" parent="WIyWlLk6GJQsqaUBKTNV-1" vertex="1">
          <mxGeometry x="203" y="1798" width="50" height="374" as="geometry" />
        </mxCell>
        <mxCell id="mK7_Rjm9uQmZdw8ifcBr-98" value="&lt;p style=&quot;font-size: 13px;&quot; class=&quot;MsoNormal&quot;&gt;&lt;b style=&quot;font-size: 13px;&quot;&gt;&lt;span style=&quot;font-size: 13px;&quot;&gt;备案确认&lt;/span&gt;&lt;/b&gt;&lt;/p&gt;" style="whiteSpace=wrap;html=1;rounded=0;fontSize=13;fontFamily=Helvetica;" parent="WIyWlLk6GJQsqaUBKTNV-1" vertex="1">
          <mxGeometry x="81" y="2241.5" width="120" height="60" as="geometry" />
        </mxCell>
        <mxCell id="mK7_Rjm9uQmZdw8ifcBr-99" value="" style="strokeWidth=2;html=1;shape=mxgraph.flowchart.annotation_2;align=left;labelPosition=right;pointerEvents=1;rounded=0;fontSize=13;fontFamily=Helvetica;" parent="WIyWlLk6GJQsqaUBKTNV-1" vertex="1">
          <mxGeometry x="203" y="2205" width="50" height="133" as="geometry" />
        </mxCell>
        <mxCell id="mK7_Rjm9uQmZdw8ifcBr-100" value="&lt;p style=&quot;font-size: 13px;&quot; class=&quot;MsoNormal&quot;&gt;&lt;b style=&quot;font-size: 13px;&quot;&gt;&lt;span style=&quot;font-size: 13px;&quot;&gt;备案登记&lt;/span&gt;&lt;/b&gt;&lt;/p&gt;" style="whiteSpace=wrap;html=1;rounded=0;fontSize=13;fontFamily=Helvetica;" parent="WIyWlLk6GJQsqaUBKTNV-1" vertex="1">
          <mxGeometry x="83" y="2375" width="120" height="60" as="geometry" />
        </mxCell>
        <mxCell id="mK7_Rjm9uQmZdw8ifcBr-101" value="" style="strokeWidth=2;html=1;shape=mxgraph.flowchart.annotation_2;align=left;labelPosition=right;pointerEvents=1;rounded=0;fontSize=13;fontFamily=Helvetica;" parent="WIyWlLk6GJQsqaUBKTNV-1" vertex="1">
          <mxGeometry x="203" y="2375" width="50" height="70" as="geometry" />
        </mxCell>
        <mxCell id="mK7_Rjm9uQmZdw8ifcBr-102" value="&lt;p style=&quot;font-size: 13px;&quot; class=&quot;MsoNormal&quot;&gt;&lt;b style=&quot;font-size: 13px;&quot;&gt;&lt;span style=&quot;font-size: 13px;&quot;&gt;流程结束&lt;/span&gt;&lt;/b&gt;&lt;/p&gt;" style="whiteSpace=wrap;html=1;rounded=0;fontSize=13;fontFamily=Helvetica;" parent="WIyWlLk6GJQsqaUBKTNV-1" vertex="1">
          <mxGeometry x="83" y="2496" width="120" height="60" as="geometry" />
        </mxCell>
        <mxCell id="mK7_Rjm9uQmZdw8ifcBr-103" value="" style="strokeWidth=2;html=1;shape=mxgraph.flowchart.annotation_2;align=left;labelPosition=right;pointerEvents=1;rounded=0;fontSize=13;fontFamily=Helvetica;" parent="WIyWlLk6GJQsqaUBKTNV-1" vertex="1">
          <mxGeometry x="203" y="2496" width="50" height="60" as="geometry" />
        </mxCell>
        <mxCell id="BtlxaE85i_RzBlJ2vxpg-2" value="&lt;p style=&quot;font-size: 13px;&quot; class=&quot;MsoNormal&quot;&gt;&lt;b style=&quot;font-size: 13px;&quot;&gt;&lt;span style=&quot;font-size: 13px;&quot;&gt;额度试算&lt;/span&gt;&lt;/b&gt;&lt;/p&gt;" style="whiteSpace=wrap;html=1;rounded=0;fontSize=13;fontFamily=Helvetica;" parent="WIyWlLk6GJQsqaUBKTNV-1" vertex="1">
          <mxGeometry x="83" y="1141.5" width="120" height="60" as="geometry" />
        </mxCell>
        <mxCell id="BtlxaE85i_RzBlJ2vxpg-1" value="" style="strokeWidth=2;html=1;shape=mxgraph.flowchart.annotation_2;align=left;labelPosition=right;pointerEvents=1;rounded=0;fontSize=13;fontFamily=Helvetica;" parent="WIyWlLk6GJQsqaUBKTNV-1" vertex="1">
          <mxGeometry x="203" y="1113" width="50" height="117" as="geometry" />
        </mxCell>
        <mxCell id="mK7_Rjm9uQmZdw8ifcBr-90" value="&lt;p style=&quot;font-size: 13px;&quot; class=&quot;MsoNormal&quot;&gt;&lt;b style=&quot;font-size: 13px;&quot;&gt;&lt;span style=&quot;font-size: 13px;&quot;&gt;缴存提醒&lt;/span&gt;&lt;/b&gt;&lt;/p&gt;" style="whiteSpace=wrap;html=1;rounded=0;fontSize=13;fontFamily=Helvetica;" parent="WIyWlLk6GJQsqaUBKTNV-1" vertex="1">
          <mxGeometry x="83" y="1331" width="120" height="60" as="geometry" />
        </mxCell>
        <mxCell id="mK7_Rjm9uQmZdw8ifcBr-91" value="" style="strokeWidth=2;html=1;shape=mxgraph.flowchart.annotation_2;align=left;labelPosition=right;pointerEvents=1;rounded=0;fontSize=13;fontFamily=Helvetica;" parent="WIyWlLk6GJQsqaUBKTNV-1" vertex="1">
          <mxGeometry x="204" y="1292" width="50" height="143" as="geometry" />
        </mxCell>
        <mxCell id="mK7_Rjm9uQmZdw8ifcBr-92" value="&lt;p style=&quot;font-size: 13px;&quot; class=&quot;MsoNormal&quot;&gt;&lt;b style=&quot;font-size: 13px;&quot;&gt;&lt;span style=&quot;font-size: 13px;&quot;&gt;备案申报&lt;/span&gt;&lt;/b&gt;&lt;/p&gt;" style="whiteSpace=wrap;html=1;rounded=0;fontSize=13;fontFamily=Helvetica;" parent="WIyWlLk6GJQsqaUBKTNV-1" vertex="1">
          <mxGeometry x="83" y="1502.5" width="120" height="60" as="geometry" />
        </mxCell>
        <mxCell id="mK7_Rjm9uQmZdw8ifcBr-93" value="" style="strokeWidth=2;html=1;shape=mxgraph.flowchart.annotation_2;align=left;labelPosition=right;pointerEvents=1;rounded=0;fontSize=13;fontFamily=Helvetica;" parent="WIyWlLk6GJQsqaUBKTNV-1" vertex="1">
          <mxGeometry x="204" y="1486" width="50" height="93" as="geometry" />
        </mxCell>
        <mxCell id="7Spn_oQR_dWnh3AmAF2H-0" value="&lt;font style=&quot;font-size: 16px;&quot;&gt;&lt;b&gt;&lt;font style=&quot;font-size: 16px;&quot;&gt;生成&lt;/font&gt;&lt;/b&gt;&lt;b&gt;&lt;font style=&quot;font-size: 16px;&quot;&gt;存储申请书&lt;/font&gt;&lt;/b&gt;&lt;/font&gt;" style="strokeWidth=2;html=1;shape=mxgraph.flowchart.database;whiteSpace=wrap;fillColor=#d5e8d4;strokeColor=#82b366;" parent="WIyWlLk6GJQsqaUBKTNV-1" vertex="1">
          <mxGeometry x="9" y="1768" width="164" height="49" as="geometry" />
        </mxCell>
        <mxCell id="7Spn_oQR_dWnh3AmAF2H-1" value="" style="rounded=0;orthogonalLoop=1;jettySize=auto;html=1;endArrow=halfCircle;endFill=0;endSize=6;strokeWidth=2;sketch=0;fontSize=12;curved=1;entryX=1;entryY=0.5;entryDx=0;entryDy=0;entryPerimeter=0;exitX=0.005;exitY=0.799;exitDx=0;exitDy=0;strokeColor=#FF3333;exitPerimeter=0;" parent="WIyWlLk6GJQsqaUBKTNV-1" target="7Spn_oQR_dWnh3AmAF2H-0" edge="1">
          <mxGeometry relative="1" as="geometry">
            <mxPoint x="576" y="1792" as="sourcePoint" />
          </mxGeometry>
        </mxCell>
        <mxCell id="Bj6FNDW3WzeK7ZVTKsq5-0" value="&lt;font style=&quot;font-size: 16px;&quot;&gt;&lt;b&gt;&lt;font style=&quot;font-size: 16px;&quot;&gt;生成&lt;/font&gt;&lt;/b&gt;&lt;b&gt;&lt;font style=&quot;font-size: 16px;&quot;&gt;存储回执&lt;/font&gt;&lt;/b&gt;&lt;/font&gt;" style="strokeWidth=2;html=1;shape=mxgraph.flowchart.database;whiteSpace=wrap;fillColor=#d5e8d4;strokeColor=#82b366;" vertex="1" parent="WIyWlLk6GJQsqaUBKTNV-1">
          <mxGeometry x="9" y="2442" width="164" height="49" as="geometry" />
        </mxCell>
        <mxCell id="Bj6FNDW3WzeK7ZVTKsq5-1" value="" style="rounded=0;orthogonalLoop=1;jettySize=auto;html=1;endArrow=halfCircle;endFill=0;endSize=6;strokeWidth=2;sketch=0;fontSize=12;curved=1;entryX=1;entryY=0.5;entryDx=0;entryDy=0;entryPerimeter=0;exitX=0;exitY=0.5;exitDx=0;exitDy=0;strokeColor=#FF3333;" edge="1" parent="WIyWlLk6GJQsqaUBKTNV-1" target="Bj6FNDW3WzeK7ZVTKsq5-0" source="mK7_Rjm9uQmZdw8ifcBr-61">
          <mxGeometry relative="1" as="geometry">
            <mxPoint x="624" y="2456" as="sourcePoint" />
          </mxGeometry>
        </mxCell>
      </root>
    </mxGraphModel>
  </diagram>
  <diagram id="bN03_g0zle1UcwJ_LNz_" name="工资保证金补存流程">
    <mxGraphModel dx="1436" dy="-1445" grid="0" gridSize="10" guides="1" tooltips="1" connect="1" arrows="1" fold="1" page="1" pageScale="1" pageWidth="827" pageHeight="1169" math="0" shadow="0">
      <root>
        <mxCell id="0" />
        <mxCell id="1" parent="0" />
        <mxCell id="4Dj1U6c2MewrKhiWukcP-1" value="&lt;p class=&quot;MsoNormal&quot; style=&quot;text-align: left; font-size: 28px;&quot;&gt;&lt;b style=&quot;font-size: 28px;&quot;&gt;&lt;span style=&quot;font-size: 28px;&quot;&gt;工资保证金补存流程&lt;/span&gt;&lt;/b&gt;&lt;b style=&quot;font-size: 28px;&quot;&gt;&lt;span style=&quot;font-size: 28px;&quot;&gt;&lt;/span&gt;&lt;/b&gt;&lt;/p&gt;" style="swimlane;childLayout=stackLayout;resizeParent=1;resizeParentMax=0;startSize=50;html=1;fontFamily=Helvetica;fontSize=28;" parent="1" vertex="1">
          <mxGeometry x="20" y="2365" width="789" height="1120" as="geometry" />
        </mxCell>
        <mxCell id="4Dj1U6c2MewrKhiWukcP-2" value="施工单位" style="swimlane;startSize=20;html=1;fontFamily=Helvetica;fontSize=16;swimlaneFillColor=#FFF4C3;" parent="4Dj1U6c2MewrKhiWukcP-1" vertex="1">
          <mxGeometry y="50" width="211" height="1070" as="geometry" />
        </mxCell>
        <mxCell id="PZmbheENcuJ6UtFlVNuM-4" value="&lt;p style=&quot;&quot; class=&quot;MsoNormal&quot;&gt;&lt;font&gt;施工单位在网办大厅确认接收补存提醒，启动重新备案流程&lt;/font&gt;&lt;br&gt;&lt;/p&gt;" style="whiteSpace=wrap;html=1;strokeWidth=2;fontFamily=Helvetica;fontSize=14;" parent="4Dj1U6c2MewrKhiWukcP-2" vertex="1">
          <mxGeometry x="12.25" y="327" width="186.5" height="60" as="geometry" />
        </mxCell>
        <mxCell id="vnhB8O3sZDuSLwfbq01C-25" value="是否线上办理？" style="rhombus;whiteSpace=wrap;html=1;strokeWidth=2;fontFamily=Helvetica;fontSize=14;" parent="4Dj1U6c2MewrKhiWukcP-2" vertex="1">
          <mxGeometry x="23.499999999999993" y="423" width="163.75" height="60" as="geometry" />
        </mxCell>
        <mxCell id="vnhB8O3sZDuSLwfbq01C-21" value="" style="edgeStyle=orthogonalEdgeStyle;rounded=0;orthogonalLoop=1;jettySize=auto;html=1;exitX=0.5;exitY=1;exitDx=0;exitDy=0;fontFamily=Helvetica;fontSize=14;" parent="4Dj1U6c2MewrKhiWukcP-2" source="PZmbheENcuJ6UtFlVNuM-4" target="vnhB8O3sZDuSLwfbq01C-25" edge="1">
          <mxGeometry relative="1" as="geometry">
            <mxPoint x="102.86000000000013" y="532" as="sourcePoint" />
          </mxGeometry>
        </mxCell>
        <mxCell id="vnhB8O3sZDuSLwfbq01C-26" value="&lt;div style=&quot;font-size: 13px;&quot;&gt;施工单位在线选择&lt;/div&gt;&lt;div style=&quot;font-size: 13px;&quot;&gt;金融机构办理&lt;/div&gt;" style="whiteSpace=wrap;html=1;strokeWidth=2;fontFamily=Helvetica;fontSize=14;" parent="4Dj1U6c2MewrKhiWukcP-2" vertex="1">
          <mxGeometry x="45.495" y="530" width="120" height="60" as="geometry" />
        </mxCell>
        <mxCell id="vnhB8O3sZDuSLwfbq01C-23" value="" style="edgeStyle=orthogonalEdgeStyle;rounded=0;orthogonalLoop=1;jettySize=auto;html=1;fontFamily=Helvetica;fontSize=14;" parent="4Dj1U6c2MewrKhiWukcP-2" source="vnhB8O3sZDuSLwfbq01C-25" target="vnhB8O3sZDuSLwfbq01C-26" edge="1">
          <mxGeometry relative="1" as="geometry" />
        </mxCell>
        <mxCell id="vnhB8O3sZDuSLwfbq01C-24" value="是" style="edgeLabel;html=1;align=center;verticalAlign=middle;resizable=0;points=[];fontFamily=Helvetica;fontSize=14;" parent="vnhB8O3sZDuSLwfbq01C-23" vertex="1" connectable="0">
          <mxGeometry x="-0.1405" y="-1" relative="1" as="geometry">
            <mxPoint as="offset" />
          </mxGeometry>
        </mxCell>
        <mxCell id="vnhB8O3sZDuSLwfbq01C-27" value="&lt;span style=&quot;font-size: 13px;&quot;&gt;施工单位到网办大厅填报经办结果，上传缴存凭证。相关原件按要求送达设区市人社部门。&lt;/span&gt;" style="whiteSpace=wrap;html=1;strokeWidth=2;fontFamily=Helvetica;fontSize=14;" parent="4Dj1U6c2MewrKhiWukcP-2" vertex="1">
          <mxGeometry x="37.18" y="644" width="136.38" height="78" as="geometry" />
        </mxCell>
        <mxCell id="4Dj1U6c2MewrKhiWukcP-4" value="人社部门" style="swimlane;startSize=20;html=1;fontFamily=Helvetica;fontSize=16;swimlaneFillColor=#D5E8D4;" parent="4Dj1U6c2MewrKhiWukcP-1" vertex="1">
          <mxGeometry x="211" y="50" width="304" height="1070" as="geometry" />
        </mxCell>
        <mxCell id="PZmbheENcuJ6UtFlVNuM-3" value="" style="edgeStyle=orthogonalEdgeStyle;rounded=0;orthogonalLoop=1;jettySize=auto;html=1;fontFamily=Helvetica;fontSize=14;" parent="4Dj1U6c2MewrKhiWukcP-4" source="PZmbheENcuJ6UtFlVNuM-1" target="PZmbheENcuJ6UtFlVNuM-2" edge="1">
          <mxGeometry relative="1" as="geometry" />
        </mxCell>
        <mxCell id="PZmbheENcuJ6UtFlVNuM-1" value="&lt;p style=&quot;&quot; class=&quot;MsoNormal&quot;&gt;&lt;font&gt;系统按照正常比例或原缴存金额&lt;/font&gt;&lt;span style=&quot;background-color: initial;&quot;&gt;自动进行补存核算。现金存储补存差额即可，&lt;/span&gt;&lt;span style=&quot;background-color: initial;&quot;&gt;保函或保证保险应当重新开立。&lt;/span&gt;&lt;/p&gt;" style="whiteSpace=wrap;html=1;strokeWidth=2;fontFamily=Helvetica;fontSize=14;" parent="4Dj1U6c2MewrKhiWukcP-4" vertex="1">
          <mxGeometry x="22" y="231" width="263" height="57" as="geometry" />
        </mxCell>
        <mxCell id="PZmbheENcuJ6UtFlVNuM-2" value="&lt;p style=&quot;font-size: 14px;&quot; class=&quot;MsoNormal&quot;&gt;&lt;span style=&quot;font-size: 13px;&quot;&gt;设区市人社部门发出补存提醒&lt;/span&gt;&lt;span style=&quot;background-color: initial; font-size: 13px;&quot;&gt;，支持人工触发短信提醒。&lt;/span&gt;&lt;/p&gt;" style="whiteSpace=wrap;html=1;strokeWidth=2;fontFamily=Helvetica;fontSize=14;" parent="4Dj1U6c2MewrKhiWukcP-4" vertex="1">
          <mxGeometry x="58.25" y="327" width="190.5" height="60" as="geometry" />
        </mxCell>
        <mxCell id="vnhB8O3sZDuSLwfbq01C-29" value="补存流程结束" style="strokeWidth=2;html=1;shape=mxgraph.flowchart.terminator;whiteSpace=wrap;fontFamily=Helvetica;fontSize=14;" parent="4Dj1U6c2MewrKhiWukcP-4" vertex="1">
          <mxGeometry x="68.5" y="988" width="160" height="56" as="geometry" />
        </mxCell>
        <mxCell id="vnhB8O3sZDuSLwfbq01C-28" value="&lt;p style=&quot;font-size: 14px;&quot; class=&quot;MsoNormal&quot;&gt;&lt;span style=&quot;font-size: 13px;&quot;&gt;设区市人社部门审核并确认补存结果（审核通过条件是必须有金融机构在线回传或确认的结果），更新项目缴存状态，补存完成。&lt;/span&gt;&lt;br&gt;&lt;/p&gt;" style="whiteSpace=wrap;html=1;strokeWidth=2;fontFamily=Helvetica;fontSize=14;" parent="4Dj1U6c2MewrKhiWukcP-4" vertex="1">
          <mxGeometry x="47.25" y="856" width="202.5" height="76" as="geometry" />
        </mxCell>
        <mxCell id="vnhB8O3sZDuSLwfbq01C-30" style="edgeStyle=orthogonalEdgeStyle;rounded=0;orthogonalLoop=1;jettySize=auto;html=1;entryX=0.5;entryY=0;entryDx=0;entryDy=0;entryPerimeter=0;fontFamily=Helvetica;fontSize=14;" parent="4Dj1U6c2MewrKhiWukcP-4" source="vnhB8O3sZDuSLwfbq01C-28" target="vnhB8O3sZDuSLwfbq01C-29" edge="1">
          <mxGeometry relative="1" as="geometry" />
        </mxCell>
        <mxCell id="3gzo0kYDbY2Vyabo906E-2" value="&lt;font style=&quot;font-size: 14px;&quot;&gt;动态监管：项目库&lt;/font&gt;" style="strokeWidth=2;html=1;shape=mxgraph.flowchart.start_2;whiteSpace=wrap;rounded=0;fontSize=14;fontFamily=Helvetica;" parent="4Dj1U6c2MewrKhiWukcP-4" vertex="1">
          <mxGeometry x="80.5" y="41" width="146" height="35" as="geometry" />
        </mxCell>
        <mxCell id="3gzo0kYDbY2Vyabo906E-3" value="&lt;p style=&quot;font-size: 14px;&quot; class=&quot;MsoNormal&quot;&gt;在建工程项目有以下三种情形，启动补存流程：&lt;span style=&quot;background-color: initial; font-size: 14px;&quot;&gt;1.工资保证金动用后，现金账户余额不足，保函或保证保险失效的；&lt;/span&gt;&lt;span style=&quot;background-color: initial; font-size: 14px;&quot;&gt;2.保函或保证保险到期失效的；&lt;/span&gt;&lt;span style=&quot;background-color: initial; font-size: 14px;&quot;&gt;3.经审核降低或免于存储工资保证金，但发生拖欠农民工工资，情节严重，造成不良社会影响的。&lt;/span&gt;&lt;/p&gt;" style="whiteSpace=wrap;html=1;strokeWidth=2;fontFamily=Helvetica;fontSize=14;" parent="4Dj1U6c2MewrKhiWukcP-4" vertex="1">
          <mxGeometry x="14" y="100" width="280" height="108" as="geometry" />
        </mxCell>
        <mxCell id="mB_lceCTJjx7jg5MEVds-1" style="edgeStyle=orthogonalEdgeStyle;rounded=0;orthogonalLoop=1;jettySize=auto;html=1;entryX=0.5;entryY=0;entryDx=0;entryDy=0;exitX=0.5;exitY=1;exitDx=0;exitDy=0;" parent="4Dj1U6c2MewrKhiWukcP-4" source="3gzo0kYDbY2Vyabo906E-3" target="PZmbheENcuJ6UtFlVNuM-1" edge="1">
          <mxGeometry relative="1" as="geometry" />
        </mxCell>
        <mxCell id="E_uuaPKzXnI3pgVAAm_4-1" value="" style="endArrow=classic;html=1;rounded=0;exitX=0.5;exitY=1;exitDx=0;exitDy=0;exitPerimeter=0;" parent="4Dj1U6c2MewrKhiWukcP-4" source="3gzo0kYDbY2Vyabo906E-2" target="3gzo0kYDbY2Vyabo906E-3" edge="1">
          <mxGeometry width="50" height="50" relative="1" as="geometry">
            <mxPoint x="170" y="332" as="sourcePoint" />
            <mxPoint x="220" y="282" as="targetPoint" />
          </mxGeometry>
        </mxCell>
        <mxCell id="4Dj1U6c2MewrKhiWukcP-20" value="金融机构" style="swimlane;startSize=20;html=1;fontFamily=Helvetica;fontSize=16;swimlaneFillColor=#D4E1F5;" parent="4Dj1U6c2MewrKhiWukcP-1" vertex="1">
          <mxGeometry x="515" y="50" width="274" height="1070" as="geometry" />
        </mxCell>
        <mxCell id="vnhB8O3sZDuSLwfbq01C-31" value="&lt;font style=&quot;font-size: 13px;&quot;&gt;施工单位线下自主&lt;/font&gt;&lt;span style=&quot;font-size: 13px; background-color: initial;&quot;&gt;到&lt;/span&gt;&lt;span style=&quot;font-size: 13px; background-color: initial;&quot;&gt;金融机构办理&lt;/span&gt;" style="whiteSpace=wrap;html=1;strokeWidth=2;fontFamily=Helvetica;fontSize=14;" parent="4Dj1U6c2MewrKhiWukcP-20" vertex="1">
          <mxGeometry x="167" y="510" width="93" height="100" as="geometry" />
        </mxCell>
        <mxCell id="vnhB8O3sZDuSLwfbq01C-32" style="edgeStyle=orthogonalEdgeStyle;rounded=0;orthogonalLoop=1;jettySize=auto;html=1;entryX=0.5;entryY=0;entryDx=0;entryDy=0;fontFamily=Helvetica;fontSize=14;" parent="4Dj1U6c2MewrKhiWukcP-20" source="vnhB8O3sZDuSLwfbq01C-33" target="vnhB8O3sZDuSLwfbq01C-34" edge="1">
          <mxGeometry relative="1" as="geometry" />
        </mxCell>
        <mxCell id="vnhB8O3sZDuSLwfbq01C-33" value="&lt;span style=&quot;font-size: 13px;&quot;&gt;转入相应金融机构线上办理流程，面向相关金融机构生成待办提醒，相关金融机构主动对接，提供服务。&lt;/span&gt;" style="whiteSpace=wrap;html=1;strokeWidth=2;fontFamily=Helvetica;fontSize=14;" parent="4Dj1U6c2MewrKhiWukcP-20" vertex="1">
          <mxGeometry x="16" y="510" width="135" height="100" as="geometry" />
        </mxCell>
        <mxCell id="vnhB8O3sZDuSLwfbq01C-34" value="&lt;span style=&quot;font-size: 13px;&quot;&gt;线上办理，由金融机构向人社部门在线反馈经办结果，相关原件由金融机构按要求送达设区市人社部门，可以提供电子保函或保单；线下办理，由施工单位到网办大厅反馈经办结果，相关金融机构应当到网办大厅注册并登录，定期核对施工单位回填的经办结果，并向人社部门反馈。&lt;/span&gt;" style="whiteSpace=wrap;html=1;strokeWidth=2;fontFamily=Helvetica;fontSize=14;" parent="4Dj1U6c2MewrKhiWukcP-20" vertex="1">
          <mxGeometry x="18.5" y="736" width="236.5" height="138" as="geometry" />
        </mxCell>
        <mxCell id="vnhB8O3sZDuSLwfbq01C-35" value="" style="edgeStyle=orthogonalEdgeStyle;rounded=0;orthogonalLoop=1;jettySize=auto;html=1;exitX=1;exitY=0.5;exitDx=0;exitDy=0;fontFamily=Helvetica;fontSize=14;" parent="4Dj1U6c2MewrKhiWukcP-1" source="vnhB8O3sZDuSLwfbq01C-25" target="vnhB8O3sZDuSLwfbq01C-31" edge="1">
          <mxGeometry relative="1" as="geometry">
            <mxPoint x="347.2799999999984" y="-442.99999999999955" as="sourcePoint" />
          </mxGeometry>
        </mxCell>
        <mxCell id="vnhB8O3sZDuSLwfbq01C-36" value="否" style="edgeLabel;html=1;align=center;verticalAlign=middle;resizable=0;points=[];fontFamily=Helvetica;fontSize=14;" parent="vnhB8O3sZDuSLwfbq01C-35" vertex="1" connectable="0">
          <mxGeometry x="-0.9449" relative="1" as="geometry">
            <mxPoint as="offset" />
          </mxGeometry>
        </mxCell>
        <mxCell id="vnhB8O3sZDuSLwfbq01C-37" value="" style="edgeStyle=orthogonalEdgeStyle;rounded=0;orthogonalLoop=1;jettySize=auto;html=1;fontFamily=Helvetica;fontSize=14;" parent="4Dj1U6c2MewrKhiWukcP-1" source="vnhB8O3sZDuSLwfbq01C-26" target="vnhB8O3sZDuSLwfbq01C-33" edge="1">
          <mxGeometry relative="1" as="geometry" />
        </mxCell>
        <mxCell id="vnhB8O3sZDuSLwfbq01C-39" style="edgeStyle=orthogonalEdgeStyle;rounded=0;orthogonalLoop=1;jettySize=auto;html=1;entryX=1;entryY=0.5;entryDx=0;entryDy=0;exitX=0.5;exitY=1;exitDx=0;exitDy=0;fontFamily=Helvetica;fontSize=14;" parent="4Dj1U6c2MewrKhiWukcP-1" source="vnhB8O3sZDuSLwfbq01C-31" target="vnhB8O3sZDuSLwfbq01C-27" edge="1">
          <mxGeometry relative="1" as="geometry" />
        </mxCell>
        <mxCell id="vnhB8O3sZDuSLwfbq01C-38" style="edgeStyle=orthogonalEdgeStyle;rounded=0;orthogonalLoop=1;jettySize=auto;html=1;entryX=0;entryY=0.5;entryDx=0;entryDy=0;exitX=0.5;exitY=1;exitDx=0;exitDy=0;fontFamily=Helvetica;fontSize=14;" parent="4Dj1U6c2MewrKhiWukcP-1" source="vnhB8O3sZDuSLwfbq01C-27" target="vnhB8O3sZDuSLwfbq01C-34" edge="1">
          <mxGeometry relative="1" as="geometry" />
        </mxCell>
        <mxCell id="0xec987fXV4XxhLHOCm8-2" style="edgeStyle=orthogonalEdgeStyle;rounded=0;orthogonalLoop=1;jettySize=auto;html=1;entryX=1;entryY=0.5;entryDx=0;entryDy=0;exitX=0.5;exitY=1;exitDx=0;exitDy=0;fontFamily=Helvetica;fontSize=14;" parent="4Dj1U6c2MewrKhiWukcP-1" source="vnhB8O3sZDuSLwfbq01C-34" target="vnhB8O3sZDuSLwfbq01C-28" edge="1">
          <mxGeometry relative="1" as="geometry" />
        </mxCell>
        <mxCell id="mB_lceCTJjx7jg5MEVds-2" style="edgeStyle=orthogonalEdgeStyle;rounded=0;orthogonalLoop=1;jettySize=auto;html=1;entryX=1;entryY=0.5;entryDx=0;entryDy=0;" parent="4Dj1U6c2MewrKhiWukcP-1" source="PZmbheENcuJ6UtFlVNuM-2" target="PZmbheENcuJ6UtFlVNuM-4" edge="1">
          <mxGeometry relative="1" as="geometry" />
        </mxCell>
      </root>
    </mxGraphModel>
  </diagram>
  <diagram id="PPBRBtlpqCvtq4-e9Vtr" name="工资保证金动用流程">
    <mxGraphModel dx="1436" dy="-276" grid="0" gridSize="10" guides="1" tooltips="1" connect="1" arrows="1" fold="1" page="1" pageScale="1" pageWidth="827" pageHeight="1169" math="0" shadow="0">
      <root>
        <mxCell id="0" />
        <mxCell id="1" parent="0" />
        <mxCell id="BydLH0MlYoJqsxZOLnMh-1" value="&lt;p style=&quot;&quot; class=&quot;MsoNormal&quot;&gt;&lt;b style=&quot;&quot;&gt;&lt;font style=&quot;font-size: 28px;&quot;&gt;工资保证金动用流程&lt;/font&gt;&lt;/b&gt;&lt;/p&gt;" style="swimlane;childLayout=stackLayout;resizeParent=1;resizeParentMax=0;startSize=50;html=1;fontSize=34;fontFamily=Helvetica;" parent="1" vertex="1">
          <mxGeometry x="99" y="1202" width="629" height="1106" as="geometry" />
        </mxCell>
        <mxCell id="BydLH0MlYoJqsxZOLnMh-2" value="施工单位" style="swimlane;startSize=20;html=1;fontSize=16;fontFamily=Helvetica;swimlaneFillColor=#FFF4C3;" parent="BydLH0MlYoJqsxZOLnMh-1" vertex="1">
          <mxGeometry y="50" width="180" height="1056" as="geometry" />
        </mxCell>
        <mxCell id="BydLH0MlYoJqsxZOLnMh-3" value="施工单位确认接收《支付通知书》" style="whiteSpace=wrap;html=1;strokeWidth=2;fontSize=13;fontFamily=Helvetica;" parent="BydLH0MlYoJqsxZOLnMh-2" vertex="1">
          <mxGeometry x="25.999999999999996" y="340" width="120" height="60" as="geometry" />
        </mxCell>
        <mxCell id="4v86D4ISrOfCdBbpg4V7-1" value="&lt;font&gt;关联施工单位&lt;/font&gt;&lt;div&gt;补存流程&lt;/div&gt;" style="whiteSpace=wrap;html=1;strokeWidth=2;fontSize=13;fontFamily=Helvetica;" parent="BydLH0MlYoJqsxZOLnMh-2" vertex="1">
          <mxGeometry x="26" y="814" width="120" height="60" as="geometry" />
        </mxCell>
        <mxCell id="BydLH0MlYoJqsxZOLnMh-5" value="人社部门" style="swimlane;startSize=20;html=1;fontSize=16;fontFamily=Helvetica;gradientColor=none;swimlaneFillColor=#D5E8D4;" parent="BydLH0MlYoJqsxZOLnMh-1" vertex="1">
          <mxGeometry x="180" y="50" width="240" height="1056" as="geometry" />
        </mxCell>
        <mxCell id="BydLH0MlYoJqsxZOLnMh-6" value="&lt;p style=&quot;text-align: justify;&quot; class=&quot;MsoNormal&quot;&gt;&lt;font&gt;人社部门向金融机构出具《农民工工资保证金支付通知书》，抄送施工单位。《支付通知书》包含支付明细。&lt;/font&gt;&lt;br&gt;&lt;/p&gt;" style="whiteSpace=wrap;html=1;strokeWidth=2;fontSize=13;fontFamily=Helvetica;" parent="BydLH0MlYoJqsxZOLnMh-5" vertex="1">
          <mxGeometry x="31" y="230" width="168" height="89" as="geometry" />
        </mxCell>
        <mxCell id="BydLH0MlYoJqsxZOLnMh-7" value="" style="edgeStyle=orthogonalEdgeStyle;rounded=0;orthogonalLoop=1;jettySize=auto;html=1;fontSize=13;fontFamily=Helvetica;" parent="BydLH0MlYoJqsxZOLnMh-5" source="BydLH0MlYoJqsxZOLnMh-8" target="BydLH0MlYoJqsxZOLnMh-10" edge="1">
          <mxGeometry relative="1" as="geometry" />
        </mxCell>
        <mxCell id="BydLH0MlYoJqsxZOLnMh-8" value="关联：案件办理、项目库" style="strokeWidth=2;html=1;shape=mxgraph.flowchart.start_2;whiteSpace=wrap;fontSize=13;fontFamily=Helvetica;" parent="BydLH0MlYoJqsxZOLnMh-5" vertex="1">
          <mxGeometry x="58" y="30" width="114" height="56" as="geometry" />
        </mxCell>
        <mxCell id="lhHjVcMwcqqGicHODI8q-2" value="" style="edgeStyle=orthogonalEdgeStyle;rounded=0;orthogonalLoop=1;jettySize=auto;html=1;" parent="BydLH0MlYoJqsxZOLnMh-5" source="BydLH0MlYoJqsxZOLnMh-10" target="BydLH0MlYoJqsxZOLnMh-6" edge="1">
          <mxGeometry relative="1" as="geometry" />
        </mxCell>
        <mxCell id="BydLH0MlYoJqsxZOLnMh-10" value="&lt;div style=&quot;text-align: justify;&quot;&gt;&lt;span style=&quot;background-color: initial;&quot;&gt;人社部门对施工单位作出限期清偿或先行清偿的行政处理，施工单位到期拒不履行，启动动用流程。&lt;/span&gt;&lt;/div&gt;" style="whiteSpace=wrap;html=1;strokeWidth=2;fontSize=13;fontFamily=Helvetica;" parent="BydLH0MlYoJqsxZOLnMh-5" vertex="1">
          <mxGeometry x="31" y="112" width="168" height="82" as="geometry" />
        </mxCell>
        <mxCell id="BydLH0MlYoJqsxZOLnMh-12" value="人社部门更正&lt;div&gt;支付明细信息&lt;/div&gt;" style="whiteSpace=wrap;html=1;strokeWidth=2;fontSize=13;fontFamily=Helvetica;" parent="BydLH0MlYoJqsxZOLnMh-5" vertex="1">
          <mxGeometry x="57.5" y="571" width="120" height="60" as="geometry" />
        </mxCell>
        <mxCell id="BydLH0MlYoJqsxZOLnMh-25" value="动用流程结束" style="ellipse;whiteSpace=wrap;html=1;strokeWidth=2;fontSize=13;fontFamily=Helvetica;" parent="BydLH0MlYoJqsxZOLnMh-5" vertex="1">
          <mxGeometry x="61.75" y="944" width="111.5" height="65" as="geometry" />
        </mxCell>
        <mxCell id="0Vvvd7G3WIsR9sizyv0s-5" value="&lt;font&gt;人社部门确认&lt;/font&gt;&lt;div&gt;&lt;font&gt;支付结果&lt;/font&gt;&lt;/div&gt;" style="whiteSpace=wrap;html=1;strokeWidth=2;fontSize=13;fontFamily=Helvetica;" parent="BydLH0MlYoJqsxZOLnMh-5" vertex="1">
          <mxGeometry x="57.5" y="868" width="120" height="53" as="geometry" />
        </mxCell>
        <mxCell id="0Vvvd7G3WIsR9sizyv0s-6" value="" style="endArrow=classic;html=1;rounded=0;exitX=0.5;exitY=1;exitDx=0;exitDy=0;entryX=0.5;entryY=0;entryDx=0;entryDy=0;" parent="BydLH0MlYoJqsxZOLnMh-5" source="0Vvvd7G3WIsR9sizyv0s-5" target="BydLH0MlYoJqsxZOLnMh-25" edge="1">
          <mxGeometry width="50" height="50" relative="1" as="geometry">
            <mxPoint x="38" y="814" as="sourcePoint" />
            <mxPoint x="88" y="764" as="targetPoint" />
          </mxGeometry>
        </mxCell>
        <mxCell id="BydLH0MlYoJqsxZOLnMh-13" value="" style="edgeStyle=orthogonalEdgeStyle;rounded=0;orthogonalLoop=1;jettySize=auto;html=1;entryX=0.5;entryY=0;entryDx=0;entryDy=0;fontSize=13;fontFamily=Helvetica;" parent="BydLH0MlYoJqsxZOLnMh-1" source="BydLH0MlYoJqsxZOLnMh-6" target="BydLH0MlYoJqsxZOLnMh-3" edge="1">
          <mxGeometry relative="1" as="geometry" />
        </mxCell>
        <mxCell id="BydLH0MlYoJqsxZOLnMh-14" value="抄送" style="edgeLabel;html=1;align=center;verticalAlign=middle;resizable=0;points=[];fontSize=13;fontFamily=Helvetica;" parent="BydLH0MlYoJqsxZOLnMh-13" vertex="1" connectable="0">
          <mxGeometry x="-0.1663" y="1" relative="1" as="geometry">
            <mxPoint as="offset" />
          </mxGeometry>
        </mxCell>
        <mxCell id="BydLH0MlYoJqsxZOLnMh-15" value="金融机构" style="swimlane;startSize=20;html=1;fontSize=16;fontFamily=Helvetica;gradientColor=none;swimlaneFillColor=#D4E1F5;" parent="BydLH0MlYoJqsxZOLnMh-1" vertex="1">
          <mxGeometry x="420" y="50" width="209" height="1056" as="geometry" />
        </mxCell>
        <mxCell id="BydLH0MlYoJqsxZOLnMh-19" value="金融机构按照支付明细将工资直接划转到农民工工资个人账户" style="whiteSpace=wrap;html=1;strokeWidth=2;fontSize=13;fontFamily=Helvetica;" parent="BydLH0MlYoJqsxZOLnMh-15" vertex="1">
          <mxGeometry x="34" y="454" width="120" height="60" as="geometry" />
        </mxCell>
        <mxCell id="BydLH0MlYoJqsxZOLnMh-20" value="" style="edgeStyle=orthogonalEdgeStyle;rounded=0;orthogonalLoop=1;jettySize=auto;html=1;fontSize=13;fontFamily=Helvetica;exitX=1;exitY=0.5;exitDx=0;exitDy=0;" parent="BydLH0MlYoJqsxZOLnMh-15" source="BydLH0MlYoJqsxZOLnMh-22" target="BydLH0MlYoJqsxZOLnMh-24" edge="1">
          <mxGeometry relative="1" as="geometry">
            <Array as="points">
              <mxPoint x="173" y="603" />
              <mxPoint x="173" y="759" />
              <mxPoint x="94" y="759" />
            </Array>
          </mxGeometry>
        </mxCell>
        <mxCell id="BydLH0MlYoJqsxZOLnMh-21" value="是" style="edgeLabel;html=1;align=center;verticalAlign=middle;resizable=0;points=[];fontSize=13;fontFamily=Helvetica;" parent="BydLH0MlYoJqsxZOLnMh-20" vertex="1" connectable="0">
          <mxGeometry x="-0.0375" y="-2" relative="1" as="geometry">
            <mxPoint as="offset" />
          </mxGeometry>
        </mxCell>
        <mxCell id="BydLH0MlYoJqsxZOLnMh-22" value="是否划转成功？" style="rhombus;whiteSpace=wrap;html=1;strokeWidth=2;fontSize=13;fontFamily=Helvetica;" parent="BydLH0MlYoJqsxZOLnMh-15" vertex="1">
          <mxGeometry x="35.5" y="570" width="117.5" height="65" as="geometry" />
        </mxCell>
        <mxCell id="BydLH0MlYoJqsxZOLnMh-24" value="金融机构直接回传支付明细，或者登录网办大厅上传支付明细" style="whiteSpace=wrap;html=1;strokeWidth=2;fontSize=13;fontFamily=Helvetica;" parent="BydLH0MlYoJqsxZOLnMh-15" vertex="1">
          <mxGeometry x="34.25" y="813" width="120" height="60" as="geometry" />
        </mxCell>
        <mxCell id="ndY9xlplaA79yEkU9Nx1-2" value="金融机构确认接收《支付通知书》" style="whiteSpace=wrap;html=1;strokeWidth=2;fontSize=13;fontFamily=Helvetica;" parent="BydLH0MlYoJqsxZOLnMh-15" vertex="1">
          <mxGeometry x="34" y="342" width="120" height="60" as="geometry" />
        </mxCell>
        <mxCell id="ndY9xlplaA79yEkU9Nx1-3" value="" style="endArrow=classic;html=1;rounded=0;exitX=0.5;exitY=1;exitDx=0;exitDy=0;entryX=0.5;entryY=0;entryDx=0;entryDy=0;" parent="BydLH0MlYoJqsxZOLnMh-15" source="ndY9xlplaA79yEkU9Nx1-2" target="BydLH0MlYoJqsxZOLnMh-19" edge="1">
          <mxGeometry width="50" height="50" relative="1" as="geometry">
            <mxPoint x="-153" y="478" as="sourcePoint" />
            <mxPoint x="-103" y="428" as="targetPoint" />
          </mxGeometry>
        </mxCell>
        <mxCell id="0Vvvd7G3WIsR9sizyv0s-1" value="" style="endArrow=classic;html=1;rounded=0;exitX=0.5;exitY=1;exitDx=0;exitDy=0;entryX=0.5;entryY=0;entryDx=0;entryDy=0;" parent="BydLH0MlYoJqsxZOLnMh-15" source="BydLH0MlYoJqsxZOLnMh-19" target="BydLH0MlYoJqsxZOLnMh-22" edge="1">
          <mxGeometry width="50" height="50" relative="1" as="geometry">
            <mxPoint x="-153" y="478" as="sourcePoint" />
            <mxPoint x="-103" y="428" as="targetPoint" />
          </mxGeometry>
        </mxCell>
        <mxCell id="0Vvvd7G3WIsR9sizyv0s-7" value="&lt;font&gt;金融机构直接回传支付异常明细，或者登录网办大厅上传支付异常明细&lt;/font&gt;" style="whiteSpace=wrap;html=1;strokeWidth=2;fontSize=13;fontFamily=Helvetica;" parent="BydLH0MlYoJqsxZOLnMh-15" vertex="1">
          <mxGeometry x="34" y="671" width="120" height="70" as="geometry" />
        </mxCell>
        <mxCell id="0Vvvd7G3WIsR9sizyv0s-8" value="&lt;font style=&quot;font-size: 13px;&quot;&gt;否&lt;/font&gt;" style="endArrow=classic;html=1;rounded=0;exitX=0.5;exitY=1;exitDx=0;exitDy=0;entryX=0.5;entryY=0;entryDx=0;entryDy=0;" parent="BydLH0MlYoJqsxZOLnMh-15" source="BydLH0MlYoJqsxZOLnMh-22" target="0Vvvd7G3WIsR9sizyv0s-7" edge="1">
          <mxGeometry width="50" height="50" relative="1" as="geometry">
            <mxPoint x="-153" y="676" as="sourcePoint" />
            <mxPoint x="-103" y="626" as="targetPoint" />
          </mxGeometry>
        </mxCell>
        <mxCell id="BydLH0MlYoJqsxZOLnMh-32" value="&lt;font style=&quot;font-size: 13px;&quot;&gt;主送&lt;/font&gt;" style="edgeStyle=orthogonalEdgeStyle;rounded=0;orthogonalLoop=1;jettySize=auto;html=1;entryX=0.5;entryY=0;entryDx=0;entryDy=0;" parent="BydLH0MlYoJqsxZOLnMh-1" source="BydLH0MlYoJqsxZOLnMh-6" target="ndY9xlplaA79yEkU9Nx1-2" edge="1">
          <mxGeometry x="-0.0013" relative="1" as="geometry">
            <mxPoint x="513" y="366" as="targetPoint" />
            <mxPoint as="offset" />
          </mxGeometry>
        </mxCell>
        <mxCell id="BydLH0MlYoJqsxZOLnMh-28" style="edgeStyle=orthogonalEdgeStyle;rounded=0;orthogonalLoop=1;jettySize=auto;html=1;entryX=0;entryY=0.5;entryDx=0;entryDy=0;exitX=0.5;exitY=0;exitDx=0;exitDy=0;fontSize=13;fontFamily=Helvetica;" parent="BydLH0MlYoJqsxZOLnMh-1" source="BydLH0MlYoJqsxZOLnMh-12" target="BydLH0MlYoJqsxZOLnMh-19" edge="1">
          <mxGeometry relative="1" as="geometry" />
        </mxCell>
        <mxCell id="BydLH0MlYoJqsxZOLnMh-23" value="" style="edgeStyle=orthogonalEdgeStyle;rounded=0;orthogonalLoop=1;jettySize=auto;html=1;fontSize=13;fontFamily=Helvetica;entryX=0.5;entryY=0;entryDx=0;entryDy=0;" parent="BydLH0MlYoJqsxZOLnMh-1" source="BydLH0MlYoJqsxZOLnMh-24" target="0Vvvd7G3WIsR9sizyv0s-5" edge="1">
          <mxGeometry relative="1" as="geometry">
            <mxPoint x="298" y="862" as="targetPoint" />
          </mxGeometry>
        </mxCell>
        <mxCell id="0Vvvd7G3WIsR9sizyv0s-10" value="" style="edgeStyle=segmentEdgeStyle;endArrow=classic;html=1;curved=0;rounded=0;endSize=8;startSize=8;exitX=0;exitY=0.5;exitDx=0;exitDy=0;entryX=0.5;entryY=1;entryDx=0;entryDy=0;" parent="BydLH0MlYoJqsxZOLnMh-1" source="0Vvvd7G3WIsR9sizyv0s-7" target="BydLH0MlYoJqsxZOLnMh-12" edge="1">
          <mxGeometry width="50" height="50" relative="1" as="geometry">
            <mxPoint x="267" y="725" as="sourcePoint" />
            <mxPoint x="317" y="675" as="targetPoint" />
          </mxGeometry>
        </mxCell>
        <mxCell id="0Vvvd7G3WIsR9sizyv0s-11" value="" style="edgeStyle=segmentEdgeStyle;endArrow=classic;html=1;curved=0;rounded=0;endSize=8;startSize=8;exitX=0;exitY=0.5;exitDx=0;exitDy=0;entryX=0.5;entryY=1;entryDx=0;entryDy=0;" parent="BydLH0MlYoJqsxZOLnMh-1" source="BydLH0MlYoJqsxZOLnMh-25" target="4v86D4ISrOfCdBbpg4V7-1" edge="1">
          <mxGeometry width="50" height="50" relative="1" as="geometry">
            <mxPoint x="65" y="1036" as="sourcePoint" />
            <mxPoint x="86" y="924" as="targetPoint" />
          </mxGeometry>
        </mxCell>
        <mxCell id="mz1ahjW7lflUjD1lwaD8-1" value="&lt;b style=&quot;&quot;&gt;&lt;font style=&quot;font-size: 16px;&quot;&gt;出具支付通知书&lt;/font&gt;&lt;/b&gt;" style="strokeWidth=2;html=1;shape=mxgraph.flowchart.database;whiteSpace=wrap;fillColor=#ffe6cc;strokeColor=#d79b00;" vertex="1" parent="1">
          <mxGeometry x="653" y="1474" width="165" height="60" as="geometry" />
        </mxCell>
        <mxCell id="mz1ahjW7lflUjD1lwaD8-2" value="" style="rounded=0;orthogonalLoop=1;jettySize=auto;html=1;endArrow=halfCircle;endFill=0;endSize=6;strokeWidth=2;sketch=0;fontSize=12;curved=1;entryX=0;entryY=0.5;entryDx=0;entryDy=0;entryPerimeter=0;strokeColor=#FF3333;exitX=1;exitY=0.25;exitDx=0;exitDy=0;" edge="1" parent="1" target="mz1ahjW7lflUjD1lwaD8-1" source="BydLH0MlYoJqsxZOLnMh-6">
          <mxGeometry relative="1" as="geometry">
            <mxPoint x="475" y="1502" as="sourcePoint" />
          </mxGeometry>
        </mxCell>
      </root>
    </mxGraphModel>
  </diagram>
  <diagram id="ivy60A9tYCm2stPYNDx1" name="工资保证金返还流程">
    <mxGraphModel dx="1018" dy="-1705" grid="0" gridSize="10" guides="1" tooltips="1" connect="1" arrows="1" fold="1" page="1" pageScale="1" pageWidth="827" pageHeight="1169" math="0" shadow="0">
      <root>
        <mxCell id="0" />
        <mxCell id="1" parent="0" />
        <mxCell id="dHIqazh8CsMDVFyoAfAD-1" value="&lt;p style=&quot;text-align:left;&quot; class=&quot;MsoNormal&quot;&gt;&lt;b&gt;&lt;span style=&quot;font-family: 方正仿宋_GB2312;&quot;&gt;&lt;font style=&quot;font-size: 28px;&quot;&gt;工资保证金返还流程&lt;/font&gt;&lt;/span&gt;&lt;/b&gt;&lt;b&gt;&lt;span style=&quot;font-family: 方正仿宋_GB2312; font-size: 14pt;&quot;&gt;&lt;/span&gt;&lt;/b&gt;&lt;/p&gt;" style="swimlane;childLayout=stackLayout;resizeParent=1;resizeParentMax=0;startSize=50;html=1;" parent="1" vertex="1">
          <mxGeometry x="66" y="2362" width="695" height="1120" as="geometry" />
        </mxCell>
        <mxCell id="dHIqazh8CsMDVFyoAfAD-2" value="施工单位" style="swimlane;startSize=20;html=1;swimlaneFillColor=#FFF4C3;fontSize=16;" parent="dHIqazh8CsMDVFyoAfAD-1" vertex="1">
          <mxGeometry y="50" width="211" height="1070" as="geometry" />
        </mxCell>
        <mxCell id="OulfUzhMRMfV3pI267jN-1" value="&lt;p class=&quot;MsoNormal&quot; style=&quot;font-size: 13px;&quot;&gt;&lt;span style=&quot;font-family: 方正仿宋_GB2312; font-size: 13px;&quot;&gt;&lt;font style=&quot;font-size: 13px;&quot;&gt;施工单位在网办大厅上传工资结清证明和书面承诺，发起公示申请&lt;/font&gt;&lt;/span&gt;&lt;/p&gt;" style="whiteSpace=wrap;html=1;strokeWidth=2;fontSize=13;" parent="dHIqazh8CsMDVFyoAfAD-2" vertex="1">
          <mxGeometry x="43" y="157" width="120" height="71" as="geometry" />
        </mxCell>
        <mxCell id="OulfUzhMRMfV3pI267jN-10" style="edgeStyle=orthogonalEdgeStyle;rounded=0;orthogonalLoop=1;jettySize=auto;html=1;entryX=0;entryY=0.5;entryDx=0;entryDy=0;exitX=0.5;exitY=1;exitDx=0;exitDy=0;fontSize=13;" parent="dHIqazh8CsMDVFyoAfAD-2" source="OulfUzhMRMfV3pI267jN-8" target="OulfUzhMRMfV3pI267jN-1" edge="1">
          <mxGeometry relative="1" as="geometry" />
        </mxCell>
        <mxCell id="OulfUzhMRMfV3pI267jN-8" value="施工单位补正材料，重新申请" style="whiteSpace=wrap;html=1;strokeWidth=2;fontSize=13;" parent="dHIqazh8CsMDVFyoAfAD-2" vertex="1">
          <mxGeometry x="43" y="312" width="120" height="68" as="geometry" />
        </mxCell>
        <mxCell id="OulfUzhMRMfV3pI267jN-15" value="施工单位提交相关材料，发起返还申请" style="whiteSpace=wrap;html=1;strokeWidth=2;fontSize=13;" parent="dHIqazh8CsMDVFyoAfAD-2" vertex="1">
          <mxGeometry x="38" y="481" width="135" height="48" as="geometry" />
        </mxCell>
        <mxCell id="OulfUzhMRMfV3pI267jN-34" style="edgeStyle=orthogonalEdgeStyle;rounded=0;orthogonalLoop=1;jettySize=auto;html=1;entryX=0;entryY=0.5;entryDx=0;entryDy=0;exitX=0.5;exitY=1;exitDx=0;exitDy=0;fontSize=13;" parent="dHIqazh8CsMDVFyoAfAD-2" source="OulfUzhMRMfV3pI267jN-28" target="OulfUzhMRMfV3pI267jN-15" edge="1">
          <mxGeometry relative="1" as="geometry" />
        </mxCell>
        <mxCell id="OulfUzhMRMfV3pI267jN-28" value="施工单位补正材料，重新申请" style="whiteSpace=wrap;html=1;strokeWidth=2;fontSize=13;" parent="dHIqazh8CsMDVFyoAfAD-2" vertex="1">
          <mxGeometry x="45.5" y="599" width="120" height="60" as="geometry" />
        </mxCell>
        <mxCell id="OulfUzhMRMfV3pI267jN-35" value="施工单位接收返还确认书，确认返还结果。" style="whiteSpace=wrap;html=1;strokeWidth=2;fontSize=13;" parent="dHIqazh8CsMDVFyoAfAD-2" vertex="1">
          <mxGeometry x="39.25" y="818" width="132.5" height="60" as="geometry" />
        </mxCell>
        <mxCell id="YIz8MyMslJaXwB_RQxnU-2" value="&lt;p class=&quot;MsoNormal&quot; style=&quot;font-size: 13px;&quot;&gt;&lt;span style=&quot;font-family: 方正仿宋_GB2312; font-size: 13px;&quot;&gt;&lt;font style=&quot;font-size: 13px;&quot;&gt;施工单位登录网办大厅接收返还提醒或自主发起返还流程。&lt;/font&gt;&lt;/span&gt;&lt;/p&gt;" style="whiteSpace=wrap;html=1;strokeWidth=2;fontSize=13;" parent="dHIqazh8CsMDVFyoAfAD-2" vertex="1">
          <mxGeometry x="43" y="59" width="120" height="60" as="geometry" />
        </mxCell>
        <mxCell id="YIz8MyMslJaXwB_RQxnU-7" value="" style="endArrow=classic;html=1;rounded=0;exitX=0.5;exitY=1;exitDx=0;exitDy=0;entryX=0.5;entryY=0;entryDx=0;entryDy=0;" parent="dHIqazh8CsMDVFyoAfAD-2" source="YIz8MyMslJaXwB_RQxnU-2" target="OulfUzhMRMfV3pI267jN-1" edge="1">
          <mxGeometry width="50" height="50" relative="1" as="geometry">
            <mxPoint x="387" y="247" as="sourcePoint" />
            <mxPoint x="437" y="197" as="targetPoint" />
          </mxGeometry>
        </mxCell>
        <mxCell id="dHIqazh8CsMDVFyoAfAD-13" value="人社部门" style="swimlane;startSize=20;html=1;swimlaneFillColor=#D5E8D4;fontSize=16;" parent="dHIqazh8CsMDVFyoAfAD-1" vertex="1">
          <mxGeometry x="211" y="50" width="274" height="1070" as="geometry" />
        </mxCell>
        <mxCell id="OulfUzhMRMfV3pI267jN-12" value="" style="edgeStyle=orthogonalEdgeStyle;rounded=0;orthogonalLoop=1;jettySize=auto;html=1;fontSize=13;" parent="dHIqazh8CsMDVFyoAfAD-13" source="OulfUzhMRMfV3pI267jN-5" target="OulfUzhMRMfV3pI267jN-11" edge="1">
          <mxGeometry relative="1" as="geometry" />
        </mxCell>
        <mxCell id="OulfUzhMRMfV3pI267jN-21" value="通过" style="edgeLabel;html=1;align=center;verticalAlign=middle;resizable=0;points=[];fontSize=13;" parent="OulfUzhMRMfV3pI267jN-12" vertex="1" connectable="0">
          <mxGeometry x="-0.3457" y="1" relative="1" as="geometry">
            <mxPoint as="offset" />
          </mxGeometry>
        </mxCell>
        <mxCell id="OulfUzhMRMfV3pI267jN-5" value="&lt;div&gt;人社部门审核公示申请&lt;/div&gt;&lt;div&gt;&lt;b&gt;支持跨层级审核，允许设区市向县（市、区）征询公示意见&lt;/b&gt;&lt;/div&gt;" style="rhombus;whiteSpace=wrap;html=1;strokeWidth=2;fontSize=13;" parent="dHIqazh8CsMDVFyoAfAD-13" vertex="1">
          <mxGeometry x="39" y="205" width="208" height="98" as="geometry" />
        </mxCell>
        <mxCell id="OulfUzhMRMfV3pI267jN-14" value="" style="edgeStyle=orthogonalEdgeStyle;rounded=0;orthogonalLoop=1;jettySize=auto;html=1;fontSize=13;" parent="dHIqazh8CsMDVFyoAfAD-13" source="OulfUzhMRMfV3pI267jN-11" target="OulfUzhMRMfV3pI267jN-13" edge="1">
          <mxGeometry relative="1" as="geometry" />
        </mxCell>
        <mxCell id="OulfUzhMRMfV3pI267jN-11" value="人社门户网站公示" style="whiteSpace=wrap;html=1;strokeWidth=2;fontSize=13;" parent="dHIqazh8CsMDVFyoAfAD-13" vertex="1">
          <mxGeometry x="83" y="340" width="120" height="42" as="geometry" />
        </mxCell>
        <mxCell id="OulfUzhMRMfV3pI267jN-13" value="&lt;font&gt;公示是否有异议？&lt;/font&gt;&lt;div&gt;&lt;div&gt;&lt;b&gt;提供公示到期提醒功能&lt;/b&gt;&lt;/div&gt;&lt;/div&gt;" style="rhombus;whiteSpace=wrap;html=1;strokeWidth=2;fontSize=13;" parent="dHIqazh8CsMDVFyoAfAD-13" vertex="1">
          <mxGeometry x="64.5" y="408" width="157" height="81" as="geometry" />
        </mxCell>
        <mxCell id="OulfUzhMRMfV3pI267jN-33" value="" style="edgeStyle=orthogonalEdgeStyle;rounded=0;orthogonalLoop=1;jettySize=auto;html=1;fontSize=13;" parent="dHIqazh8CsMDVFyoAfAD-13" source="OulfUzhMRMfV3pI267jN-17" target="OulfUzhMRMfV3pI267jN-32" edge="1">
          <mxGeometry relative="1" as="geometry" />
        </mxCell>
        <mxCell id="8N36jjvfYL6Bo-Fq2pgo-1" value="通过" style="edgeLabel;html=1;align=center;verticalAlign=middle;resizable=0;points=[];fontSize=13;" parent="OulfUzhMRMfV3pI267jN-33" vertex="1" connectable="0">
          <mxGeometry x="-0.4077" y="-1" relative="1" as="geometry">
            <mxPoint as="offset" />
          </mxGeometry>
        </mxCell>
        <mxCell id="OulfUzhMRMfV3pI267jN-17" value="人社部门审核返还申请" style="rhombus;whiteSpace=wrap;html=1;strokeWidth=2;fontSize=13;" parent="dHIqazh8CsMDVFyoAfAD-13" vertex="1">
          <mxGeometry x="61" y="537.5" width="164" height="71" as="geometry" />
        </mxCell>
        <mxCell id="OulfUzhMRMfV3pI267jN-32" value="人社部门出具&lt;div&gt;返还确认书&lt;/div&gt;" style="whiteSpace=wrap;html=1;strokeWidth=2;fontSize=13;" parent="dHIqazh8CsMDVFyoAfAD-13" vertex="1">
          <mxGeometry x="83" y="719" width="120" height="60" as="geometry" />
        </mxCell>
        <mxCell id="OulfUzhMRMfV3pI267jN-41" value="&lt;div style=&quot;&quot;&gt;&lt;span style=&quot;background-color: initial;&quot;&gt;返还流程结束&lt;/span&gt;&lt;/div&gt;&lt;div style=&quot;text-align: justify;&quot;&gt;&lt;font size=&quot;1&quot;&gt;&lt;b&gt;设置自动返还简易流程：保函或保证保险到期后，判定项目是否完工，如完工，发出自动返还提醒，人社部门确认后，返还流程结束。&lt;/b&gt;&lt;/font&gt;&lt;br&gt;&lt;/div&gt;" style="strokeWidth=2;html=1;shape=mxgraph.flowchart.start_2;whiteSpace=wrap;fontSize=13;" parent="dHIqazh8CsMDVFyoAfAD-13" vertex="1">
          <mxGeometry x="59.5" y="952" width="187.5" height="106" as="geometry" />
        </mxCell>
        <mxCell id="8N36jjvfYL6Bo-Fq2pgo-3" value="人社部门向施工单位返还保函或保证保险正本" style="whiteSpace=wrap;html=1;strokeWidth=2;fontSize=13;" parent="dHIqazh8CsMDVFyoAfAD-13" vertex="1">
          <mxGeometry x="83" y="818" width="120" height="60" as="geometry" />
        </mxCell>
        <mxCell id="ARKBVkQEZejtNsRn7FEh-1" value="&lt;span style=&quot;font-size: 14px;&quot;&gt;动态监管：项目库&lt;/span&gt;" style="strokeWidth=2;html=1;shape=mxgraph.flowchart.start_2;whiteSpace=wrap;fontSize=13;" parent="dHIqazh8CsMDVFyoAfAD-13" vertex="1">
          <mxGeometry x="97.75" y="27" width="90.5" height="47" as="geometry" />
        </mxCell>
        <mxCell id="4uNu7_nsfyBektUNEsrp-1" value="&lt;p class=&quot;MsoNormal&quot; style=&quot;text-align: justify; font-size: 13px;&quot;&gt;&lt;span style=&quot;font-family: 方正仿宋_GB2312; font-size: 13px;&quot;&gt;&lt;font style=&quot;font-size: 13px;&quot;&gt;人社部门对工程项目实施动态监管，获取到项目状态变更信息，&lt;/font&gt;&lt;/span&gt;&lt;span style=&quot;font-family: 方正仿宋_GB2312; background-color: initial;&quot;&gt;发现工程完工，&lt;/span&gt;&lt;span style=&quot;font-family: 方正仿宋_GB2312; background-color: initial;&quot;&gt;面向施工单位发出工资保证金返还提醒。&lt;/span&gt;&lt;/p&gt;" style="whiteSpace=wrap;html=1;strokeWidth=2;fontSize=13;" parent="dHIqazh8CsMDVFyoAfAD-13" vertex="1">
          <mxGeometry x="50" y="97" width="186" height="71" as="geometry" />
        </mxCell>
        <mxCell id="YIz8MyMslJaXwB_RQxnU-1" value="" style="endArrow=classic;html=1;rounded=0;exitX=0.5;exitY=1;exitDx=0;exitDy=0;exitPerimeter=0;entryX=0.5;entryY=0;entryDx=0;entryDy=0;" parent="dHIqazh8CsMDVFyoAfAD-13" source="ARKBVkQEZejtNsRn7FEh-1" target="4uNu7_nsfyBektUNEsrp-1" edge="1">
          <mxGeometry width="50" height="50" relative="1" as="geometry">
            <mxPoint x="176" y="247" as="sourcePoint" />
            <mxPoint x="226" y="197" as="targetPoint" />
          </mxGeometry>
        </mxCell>
        <mxCell id="YIz8MyMslJaXwB_RQxnU-10" value="&lt;font style=&quot;font-size: 13px;&quot;&gt;有&lt;/font&gt;&lt;div style=&quot;font-size: 13px;&quot;&gt;&lt;font style=&quot;font-size: 13px;&quot;&gt;异&lt;/font&gt;&lt;/div&gt;&lt;div style=&quot;font-size: 13px;&quot;&gt;&lt;font style=&quot;font-size: 13px;&quot;&gt;议&lt;/font&gt;&lt;/div&gt;" style="edgeStyle=elbowEdgeStyle;elbow=horizontal;endArrow=classic;html=1;curved=0;rounded=0;endSize=8;startSize=8;exitX=1;exitY=0.5;exitDx=0;exitDy=0;entryX=1;entryY=0.5;entryDx=0;entryDy=0;" parent="dHIqazh8CsMDVFyoAfAD-13" source="OulfUzhMRMfV3pI267jN-13" target="OulfUzhMRMfV3pI267jN-5" edge="1">
          <mxGeometry width="50" height="50" relative="1" as="geometry">
            <mxPoint x="216.5" y="440.5" as="sourcePoint" />
            <mxPoint x="237" y="246.5" as="targetPoint" />
            <Array as="points">
              <mxPoint x="261" y="343" />
            </Array>
          </mxGeometry>
        </mxCell>
        <mxCell id="dHIqazh8CsMDVFyoAfAD-22" value="金融机构" style="swimlane;startSize=20;html=1;swimlaneFillColor=#D4E1F5;fontSize=16;" parent="dHIqazh8CsMDVFyoAfAD-1" vertex="1">
          <mxGeometry x="485" y="50" width="210" height="1070" as="geometry" />
        </mxCell>
        <mxCell id="OulfUzhMRMfV3pI267jN-40" value="" style="edgeStyle=orthogonalEdgeStyle;rounded=0;orthogonalLoop=1;jettySize=auto;html=1;fontSize=13;" parent="dHIqazh8CsMDVFyoAfAD-22" source="OulfUzhMRMfV3pI267jN-37" target="OulfUzhMRMfV3pI267jN-39" edge="1">
          <mxGeometry relative="1" as="geometry" />
        </mxCell>
        <mxCell id="8N36jjvfYL6Bo-Fq2pgo-2" value="是" style="edgeLabel;html=1;align=center;verticalAlign=middle;resizable=0;points=[];fontSize=13;" parent="OulfUzhMRMfV3pI267jN-40" vertex="1" connectable="0">
          <mxGeometry x="-0.29" relative="1" as="geometry">
            <mxPoint as="offset" />
          </mxGeometry>
        </mxCell>
        <mxCell id="OulfUzhMRMfV3pI267jN-37" value="是否现金存储？" style="rhombus;whiteSpace=wrap;html=1;strokeWidth=2;fontSize=13;" parent="dHIqazh8CsMDVFyoAfAD-22" vertex="1">
          <mxGeometry x="41" y="791" width="128" height="56" as="geometry" />
        </mxCell>
        <mxCell id="OulfUzhMRMfV3pI267jN-39" value="金融机构在线直接接收或登录网办大厅接收返还确认书，对工资保证金账户解除监管。" style="whiteSpace=wrap;html=1;strokeWidth=2;fontSize=13;" parent="dHIqazh8CsMDVFyoAfAD-22" vertex="1">
          <mxGeometry x="36" y="899" width="138" height="80" as="geometry" />
        </mxCell>
        <mxCell id="8N36jjvfYL6Bo-Fq2pgo-4" value="" style="edgeStyle=orthogonalEdgeStyle;rounded=0;orthogonalLoop=1;jettySize=auto;html=1;fontSize=13;" parent="dHIqazh8CsMDVFyoAfAD-1" source="OulfUzhMRMfV3pI267jN-37" target="8N36jjvfYL6Bo-Fq2pgo-3" edge="1">
          <mxGeometry relative="1" as="geometry" />
        </mxCell>
        <mxCell id="8N36jjvfYL6Bo-Fq2pgo-7" value="否" style="edgeLabel;html=1;align=center;verticalAlign=middle;resizable=0;points=[];fontSize=13;" parent="8N36jjvfYL6Bo-Fq2pgo-4" vertex="1" connectable="0">
          <mxGeometry x="-0.5802" y="1" relative="1" as="geometry">
            <mxPoint as="offset" />
          </mxGeometry>
        </mxCell>
        <mxCell id="8r5BzPnKJfTJRB-Xd9YA-1" style="edgeStyle=orthogonalEdgeStyle;rounded=0;orthogonalLoop=1;jettySize=auto;html=1;entryX=0.5;entryY=0;entryDx=0;entryDy=0;fontSize=13;" parent="dHIqazh8CsMDVFyoAfAD-1" source="OulfUzhMRMfV3pI267jN-32" target="OulfUzhMRMfV3pI267jN-37" edge="1">
          <mxGeometry relative="1" as="geometry" />
        </mxCell>
        <mxCell id="AiTzn2P365eIOwBVrrCJ-2" style="edgeStyle=orthogonalEdgeStyle;rounded=0;orthogonalLoop=1;jettySize=auto;html=1;entryX=0.5;entryY=0;entryDx=0;entryDy=0;fontSize=13;" parent="dHIqazh8CsMDVFyoAfAD-1" source="OulfUzhMRMfV3pI267jN-32" target="OulfUzhMRMfV3pI267jN-35" edge="1">
          <mxGeometry relative="1" as="geometry" />
        </mxCell>
        <mxCell id="AiTzn2P365eIOwBVrrCJ-4" style="edgeStyle=orthogonalEdgeStyle;rounded=0;orthogonalLoop=1;jettySize=auto;html=1;entryX=0.5;entryY=0;entryDx=0;entryDy=0;fontSize=13;" parent="dHIqazh8CsMDVFyoAfAD-1" source="OulfUzhMRMfV3pI267jN-17" target="OulfUzhMRMfV3pI267jN-28" edge="1">
          <mxGeometry relative="1" as="geometry">
            <mxPoint x="105.5" y="643" as="targetPoint" />
          </mxGeometry>
        </mxCell>
        <mxCell id="AiTzn2P365eIOwBVrrCJ-5" value="不通过" style="edgeLabel;html=1;align=center;verticalAlign=middle;resizable=0;points=[];fontSize=13;" parent="AiTzn2P365eIOwBVrrCJ-4" vertex="1" connectable="0">
          <mxGeometry x="-0.7242" y="1" relative="1" as="geometry">
            <mxPoint as="offset" />
          </mxGeometry>
        </mxCell>
        <mxCell id="AiTzn2P365eIOwBVrrCJ-6" style="edgeStyle=orthogonalEdgeStyle;rounded=0;orthogonalLoop=1;jettySize=auto;html=1;entryX=0.5;entryY=0;entryDx=0;entryDy=0;fontSize=13;" parent="dHIqazh8CsMDVFyoAfAD-1" source="OulfUzhMRMfV3pI267jN-13" target="OulfUzhMRMfV3pI267jN-15" edge="1">
          <mxGeometry relative="1" as="geometry" />
        </mxCell>
        <mxCell id="AiTzn2P365eIOwBVrrCJ-7" value="无异议" style="edgeLabel;html=1;align=center;verticalAlign=middle;resizable=0;points=[];fontSize=13;" parent="AiTzn2P365eIOwBVrrCJ-6" vertex="1" connectable="0">
          <mxGeometry x="-0.6793" y="-1" relative="1" as="geometry">
            <mxPoint as="offset" />
          </mxGeometry>
        </mxCell>
        <mxCell id="AiTzn2P365eIOwBVrrCJ-8" style="edgeStyle=orthogonalEdgeStyle;rounded=0;orthogonalLoop=1;jettySize=auto;html=1;entryX=0.5;entryY=0;entryDx=0;entryDy=0;fontSize=13;" parent="dHIqazh8CsMDVFyoAfAD-1" source="OulfUzhMRMfV3pI267jN-5" target="OulfUzhMRMfV3pI267jN-8" edge="1">
          <mxGeometry relative="1" as="geometry">
            <mxPoint x="105.5" y="316" as="targetPoint" />
          </mxGeometry>
        </mxCell>
        <mxCell id="AiTzn2P365eIOwBVrrCJ-9" value="不通过" style="edgeLabel;html=1;align=center;verticalAlign=middle;resizable=0;points=[];fontSize=13;" parent="AiTzn2P365eIOwBVrrCJ-8" vertex="1" connectable="0">
          <mxGeometry x="-0.5935" y="-1" relative="1" as="geometry">
            <mxPoint x="8" y="1" as="offset" />
          </mxGeometry>
        </mxCell>
        <mxCell id="AiTzn2P365eIOwBVrrCJ-10" style="edgeStyle=orthogonalEdgeStyle;rounded=0;orthogonalLoop=1;jettySize=auto;html=1;entryX=0.5;entryY=0;entryDx=0;entryDy=0;fontSize=13;exitX=1;exitY=0.5;exitDx=0;exitDy=0;" parent="dHIqazh8CsMDVFyoAfAD-1" source="OulfUzhMRMfV3pI267jN-1" target="OulfUzhMRMfV3pI267jN-5" edge="1">
          <mxGeometry relative="1" as="geometry">
            <Array as="points">
              <mxPoint x="163" y="240" />
              <mxPoint x="354" y="240" />
            </Array>
          </mxGeometry>
        </mxCell>
        <mxCell id="AiTzn2P365eIOwBVrrCJ-11" style="edgeStyle=orthogonalEdgeStyle;rounded=0;orthogonalLoop=1;jettySize=auto;html=1;entryX=0.5;entryY=0;entryDx=0;entryDy=0;fontSize=13;" parent="dHIqazh8CsMDVFyoAfAD-1" source="OulfUzhMRMfV3pI267jN-15" target="OulfUzhMRMfV3pI267jN-17" edge="1">
          <mxGeometry relative="1" as="geometry" />
        </mxCell>
        <mxCell id="YIz8MyMslJaXwB_RQxnU-6" value="" style="edgeStyle=elbowEdgeStyle;elbow=horizontal;endArrow=classic;html=1;curved=0;rounded=0;endSize=8;startSize=8;entryX=1;entryY=0.5;entryDx=0;entryDy=0;exitX=0;exitY=0.5;exitDx=0;exitDy=0;" parent="dHIqazh8CsMDVFyoAfAD-1" source="4uNu7_nsfyBektUNEsrp-1" target="YIz8MyMslJaXwB_RQxnU-2" edge="1">
          <mxGeometry width="50" height="50" relative="1" as="geometry">
            <mxPoint x="387" y="297" as="sourcePoint" />
            <mxPoint x="437" y="247" as="targetPoint" />
          </mxGeometry>
        </mxCell>
        <mxCell id="YIz8MyMslJaXwB_RQxnU-12" value="" style="edgeStyle=segmentEdgeStyle;endArrow=classic;html=1;curved=0;rounded=0;endSize=8;startSize=8;exitX=0;exitY=0.5;exitDx=0;exitDy=0;entryX=1;entryY=0.5;entryDx=0;entryDy=0;" parent="dHIqazh8CsMDVFyoAfAD-1" source="OulfUzhMRMfV3pI267jN-39" target="OulfUzhMRMfV3pI267jN-35" edge="1">
          <mxGeometry width="50" height="50" relative="1" as="geometry">
            <mxPoint x="387" y="764" as="sourcePoint" />
            <mxPoint x="437" y="714" as="targetPoint" />
            <Array as="points">
              <mxPoint x="252" y="989" />
              <mxPoint x="252" y="898" />
            </Array>
          </mxGeometry>
        </mxCell>
        <mxCell id="YIz8MyMslJaXwB_RQxnU-13" value="" style="endArrow=classic;html=1;rounded=0;exitX=0;exitY=0.5;exitDx=0;exitDy=0;entryX=1;entryY=0.5;entryDx=0;entryDy=0;" parent="dHIqazh8CsMDVFyoAfAD-1" source="8N36jjvfYL6Bo-Fq2pgo-3" target="OulfUzhMRMfV3pI267jN-35" edge="1">
          <mxGeometry width="50" height="50" relative="1" as="geometry">
            <mxPoint x="387" y="764" as="sourcePoint" />
            <mxPoint x="437" y="714" as="targetPoint" />
          </mxGeometry>
        </mxCell>
        <mxCell id="YIz8MyMslJaXwB_RQxnU-14" value="" style="edgeStyle=elbowEdgeStyle;elbow=horizontal;endArrow=classic;html=1;curved=0;rounded=0;endSize=8;startSize=8;entryX=0;entryY=0.5;entryDx=0;entryDy=0;entryPerimeter=0;exitX=0.5;exitY=1;exitDx=0;exitDy=0;" parent="dHIqazh8CsMDVFyoAfAD-1" source="OulfUzhMRMfV3pI267jN-35" target="OulfUzhMRMfV3pI267jN-41" edge="1">
          <mxGeometry width="50" height="50" relative="1" as="geometry">
            <mxPoint x="387" y="764" as="sourcePoint" />
            <mxPoint x="437" y="714" as="targetPoint" />
            <Array as="points">
              <mxPoint x="106" y="1024" />
            </Array>
          </mxGeometry>
        </mxCell>
        <mxCell id="R8bNxFVuaD2w-qO_DFs7-1" value="&lt;b style=&quot;&quot;&gt;&lt;font style=&quot;font-size: 16px;&quot;&gt;出具返还确认书&lt;/font&gt;&lt;/b&gt;" style="strokeWidth=2;html=1;shape=mxgraph.flowchart.database;whiteSpace=wrap;fillColor=#ffe6cc;strokeColor=#d79b00;" vertex="1" parent="1">
          <mxGeometry x="648" y="3107" width="165" height="60" as="geometry" />
        </mxCell>
        <mxCell id="R8bNxFVuaD2w-qO_DFs7-2" value="" style="rounded=0;orthogonalLoop=1;jettySize=auto;html=1;endArrow=halfCircle;endFill=0;endSize=6;strokeWidth=2;sketch=0;fontSize=12;curved=1;exitX=0.997;exitY=0.133;exitDx=0;exitDy=0;entryX=0;entryY=0.5;entryDx=0;entryDy=0;entryPerimeter=0;exitPerimeter=0;strokeColor=#FF3333;" edge="1" parent="1" target="R8bNxFVuaD2w-qO_DFs7-1" source="OulfUzhMRMfV3pI267jN-32">
          <mxGeometry relative="1" as="geometry">
            <mxPoint x="453" y="3137" as="sourcePoint" />
          </mxGeometry>
        </mxCell>
      </root>
    </mxGraphModel>
  </diagram>
</mxfile>
